<?xml version="1.0" encoding="UTF-8" standalone="no"?>
<!-- Created with Inkscape (http://www.inkscape.org/) -->

<svg
   xmlns:dc="http://purl.org/dc/elements/1.1/"
   xmlns:cc="http://creativecommons.org/ns#"
   xmlns:rdf="http://www.w3.org/1999/02/22-rdf-syntax-ns#"
   xmlns:svg="http://www.w3.org/2000/svg"
   xmlns="http://www.w3.org/2000/svg"
   xmlns:sodipodi="http://sodipodi.sourceforge.net/DTD/sodipodi-0.dtd"
   xmlns:inkscape="http://www.inkscape.org/namespaces/inkscape"
   width="181.90015mm"
   height="208.45667mm"
   viewBox="0 0 644.52808 738.62598"
   id="svg3682"
   version="1.1"
   inkscape:version="0.91 r13725"
   sodipodi:docname="abstract.svg">
  <defs
     id="defs3684" />
  <sodipodi:namedview
     id="base"
     pagecolor="#ffffff"
     bordercolor="#666666"
     borderopacity="1.0"
     inkscape:pageopacity="0.0"
     inkscape:pageshadow="2"
     inkscape:zoom="0.98994949"
     inkscape:cx="219.20005"
     inkscape:cy="476.64064"
     inkscape:document-units="px"
     inkscape:current-layer="layer1"
     showgrid="false"
     fit-margin-top="5"
     fit-margin-left="5"
     fit-margin-right="5"
     fit-margin-bottom="5"
     inkscape:window-width="1366"
     inkscape:window-height="703"
     inkscape:window-x="0"
     inkscape:window-y="27"
     inkscape:window-maximized="1" />
  <metadata
     id="metadata3687">
    <rdf:RDF>
      <cc:Work
         rdf:about="">
        <dc:format>image/svg+xml</dc:format>
        <dc:type
           rdf:resource="http://purl.org/dc/dcmitype/StillImage" />
        <dc:title></dc:title>
      </cc:Work>
    </rdf:RDF>
  </metadata>
  <g
     inkscape:label="Layer 1"
     inkscape:groupmode="layer"
     id="layer1"
     transform="translate(-292.02167,26.866059)">
    <text
       y="-0.45413932"
       x="539.91199"
       style="font-variant:normal;font-weight:normal;font-size:12.45324993px;font-family:CMBX10;-inkscape-font-specification:CMBX10;writing-mode:lr-tb;fill:#000000;fill-opacity:1;fill-rule:nonzero;stroke:none"
       id="text12">
      <tspan
         x="539.91199 550.73883 560.92682 568.88318 578.84583 589.58673 600.01508 610.35876 625.09094 635.8493 649.64252 659.98621 670.74457 678.70093"
         y="-0.45413932"
         sodipodi:role="line"
         id="tspan14">ABSTRACTOFCOST</tspan>
    </text>
    <text
       y="28.01836"
       x="317.21072"
       style="font-variant:normal;font-weight:normal;font-size:12.45324993px;font-family:CMR10;-inkscape-font-specification:CMR10;writing-mode:lr-tb;fill:#000000;fill-opacity:1;fill-rule:nonzero;stroke:none"
       id="text16">
      <tspan
         x="317.21072 326.55066 332.77728 343.15457 352.83572 359.06235 367.02747 378.78082 385.00745 389.88541 514.17877"
         y="28.01836"
         sodipodi:role="line"
         id="tspan18">NameofWork:</tspan>
    </text>
    <text
       y="28.01836"
       x="547.32074"
       style="font-variant:normal;font-weight:normal;font-size:12.45324993px;font-family:CMTI10;-inkscape-font-specification:CMTI10;writing-mode:lr-tb;fill:#000000;fill-opacity:1;fill-rule:nonzero;stroke:none"
       id="text20">
      <tspan
         x="547.32074 556.23224 562.59711 573.42023 582.1861 588.86975 592.68915 595.87219 602.23706 606.05646 613.05768 618.78619 628.3241 632.14355 638.50836 648.2182 657.12976 666.38623 675.96155 684.2392 692.68622 698.41473 703.66626 707.48572 713.53302 724.34363 731.3573 740.61383 744.42078 753.04218 759.40704 765.77185 769.59131 773.72827 777.54767 783.91254 790.91376 797.27863 804.91992 810.64844 813.83148 818.92487 824.65332 828.79028 834.04187 837.86127 844.86249 849.95587 856.32074 860.4577 864.2771 870.64197 882.10144 888.46631 895.46753"
         y="28.01836"
         sodipodi:role="line"
         id="tspan22">C/oBuildingsforCUK,PeriyaSH:Additionalelectrifcationand</tspan>
      <tspan
         x="547.32074 553.68555 558.77771 563.86981 569.59955 575.32806 579.14746 585.51233 589.64929 594.74268 605.5658 613.83972 620.20459 625.45612 631.18463 640.7226 647.0874 655.68268 664.59418 673.04126 685.48083 699.34125 704.43341 708.25281 712.38977 722.57654 728.94141 739.92145 745.00232 755.18909 761.55396 770.14917 779.06073 788.31726 797.89252"
         y="42.96336"
         sodipodi:role="line"
         id="tspan24">associatedworksatCPWDsiteofceatCUK.</tspan>
    </text>
    <text
       y="61.504616"
       x="317.21072"
       style="font-variant:normal;font-weight:normal;font-size:12.45324993px;font-family:CMR10;-inkscape-font-specification:CMR10;writing-mode:lr-tb;fill:#000000;fill-opacity:1;fill-rule:nonzero;stroke:none"
       id="text26">
      <tspan
         x="317.21072 324.12973 327.58926 332.43231 339.35135 345.57797 350.42105 353.88055 360.10718 514.17383"
         y="61.504616"
         sodipodi:role="line"
         id="tspan28">Situation:</tspan>
    </text>
    <text
       y="61.504616"
       x="547.32074"
       style="font-variant:normal;font-weight:normal;font-size:12.45324993px;font-family:CMTI10;-inkscape-font-specification:CMTI10;writing-mode:lr-tb;fill:#000000;fill-opacity:1;fill-rule:nonzero;stroke:none"
       id="text30">
      <tspan
         x="547.32074 555.76776 561.49628 566.7478 570.5672 576.6145 582.97937 591.25702 600.83234 607.1972 612.28931 618.65417 623.25812 629.62299 635.3515 641.08124 647.44611"
         y="61.504616"
         sodipodi:role="line"
         id="tspan32">Periya,Kasaragode</tspan>
    </text>
    <text
       y="80.738373"
       x="317.21072"
       style="font-variant:normal;font-weight:normal;font-size:12.45324993px;font-family:CMR10;-inkscape-font-specification:CMR10;writing-mode:lr-tb;fill:#000000;fill-opacity:1;fill-rule:nonzero;stroke:none"
       id="text34">
      <tspan
         x="317.21072 326.55066 332.77728 337.65521 343.18945 348.72366 359.10095 364.63519 371.20551 380.20798 389.54791 395.77454 514.17755"
         y="80.738373"
         sodipodi:role="line"
         id="tspan36">AgreementNo.:</tspan>
    </text>
    <text
       y="80.738373"
       x="547.32074"
       style="font-variant:normal;font-weight:normal;font-size:12.45324993px;font-family:CMTI10;-inkscape-font-specification:CMTI10;writing-mode:lr-tb;fill:#000000;fill-opacity:1;fill-rule:nonzero;stroke:none"
       id="text38">
      <tspan
         x="547.32074 559.76025 563.57965 573.12756 576.94696 583.31183 589.6767 596.04156 604.48859 612.93561 619.30048 628.21204 635.06384 643.97534 652.42242 660.86945 670.27167 676.63647 683.00134 689.36621 695.73108 706.5542 712.91907 719.28387 723.42084 728.51422 739.33734 745.70221 752.06708 758.43195 764.79681 771.16162 777.52649 783.89136 790.25623 796.62109"
         y="80.738373"
         sodipodi:role="line"
         id="tspan40">W.O.03/EE/CLTPED/2015dated24/06/2015</tspan>
    </text>
    <text
       y="99.970863"
       x="317.21072"
       style="font-variant:normal;font-weight:normal;font-size:12.45324993px;font-family:CMR10;-inkscape-font-specification:CMR10;writing-mode:lr-tb;fill:#000000;fill-opacity:1;fill-rule:nonzero;stroke:none"
       id="text42">
      <tspan
         x="317.21072 326.55066 332.77728 338.31149 345.23053 350.76474 514.17383"
         y="99.970863"
         sodipodi:role="line"
         id="tspan44">Agency:</tspan>
    </text>
    <text
       y="99.970863"
       x="547.32074"
       style="font-variant:normal;font-weight:normal;font-size:12.45324993px;font-family:CMTI10;-inkscape-font-specification:CMTI10;writing-mode:lr-tb;fill:#000000;fill-opacity:1;fill-rule:nonzero;stroke:none"
       id="text46">
      <tspan
         x="547.32074 554.3219 560.68677 565.93829 569.75775 579.3056 590.47247 594.29187 603.5484 607.3678 616.62427 621.71643 626.80981 632.53827"
         y="99.970863"
         sodipodi:role="line"
         id="tspan48">Shri.M.V.Azeez</tspan>
    </text>
    <text
       y="119.20462"
       x="317.21072"
       style="font-variant:normal;font-weight:normal;font-size:12.45324993px;font-family:CMR10;-inkscape-font-specification:CMR10;writing-mode:lr-tb;fill:#000000;fill-opacity:1;fill-rule:nonzero;stroke:none"
       id="text50">
      <tspan
         x="317.21072 326.72375 332.95038 337.79346 347.47461 353.70123 361.66632 368.58536 373.42844 379.65506 384.53299 514.1701"
         y="119.20462"
         sodipodi:role="line"
         id="tspan52">DateofStart:</tspan>
    </text>
    <text
       y="119.20462"
       x="547.32074"
       style="font-variant:normal;font-weight:normal;font-size:12.45324993px;font-family:CMTI10;-inkscape-font-specification:CMTI10;writing-mode:lr-tb;fill:#000000;fill-opacity:1;fill-rule:nonzero;stroke:none"
       id="text54">
      <tspan
         x="547.32074 553.68555 560.05042 566.41528 572.78015 579.14496 585.50983 591.87469 598.23956 604.60443"
         y="119.20462"
         sodipodi:role="line"
         id="tspan56">24/06/2015</tspan>
    </text>
    <text
       y="139.12961"
       x="317.21072"
       style="font-variant:normal;font-weight:normal;font-size:12.45324993px;font-family:CMR10;-inkscape-font-specification:CMR10;writing-mode:lr-tb;fill:#000000;fill-opacity:1;fill-rule:nonzero;stroke:none"
       id="text58">
      <tspan
         x="317.21072 326.55066 335.60913 342.87686 348.4111 357.43594 363.6626 369.88922 374.76715 380.30136 385.8356 396.22534 401.75958 408.3299 514.16882"
         y="139.12961"
         sodipodi:role="line"
         id="tspan60">Asperagreement:</tspan>
    </text>
    <text
       y="139.12961"
       x="547.32074"
       style="font-variant:normal;font-weight:normal;font-size:12.45324993px;font-family:CMTI10;-inkscape-font-specification:CMTI10;writing-mode:lr-tb;fill:#000000;fill-opacity:1;fill-rule:nonzero;stroke:none"
       id="text62">
      <tspan
         x="547.32074 553.68555 560.05042 566.41528 572.78015 579.14496 585.50983 591.87469 598.23956 604.60443"
         y="139.12961"
         sodipodi:role="line"
         id="tspan64">24/06/2015</tspan>
    </text>
    <text
       y="162.25087"
       x="317.21072"
       style="font-variant:normal;font-weight:normal;font-size:12.45324993px;font-family:CMR10;-inkscape-font-specification:CMR10;writing-mode:lr-tb;fill:#000000;fill-opacity:1;fill-rule:nonzero;stroke:none"
       id="text66">
      <tspan
         x="317.21072 326.72375 332.95038 337.79346 347.47461 353.70123 361.66632 370.66006 376.88669 387.26398 394.18301 397.64252 403.17676 408.01981 411.47934 417.70596 514.17627"
         y="162.25087"
         sodipodi:role="line"
         id="tspan68">DateofCompletion:</tspan>
      <tspan
         x="317.21072 326.72375 332.95038 337.79346 347.47461 353.70123 361.66632 371.00626 377.92529 382.83685 387.67993 392.55786 398.78448 404.3187 514.18005"
         y="181.48462"
         sodipodi:role="line"
         id="tspan70">DateofAbstract:</tspan>
    </text>
    <text
       y="181.48462"
       x="547.32074"
       style="font-variant:normal;font-weight:normal;font-size:12.45324993px;font-family:CMTI10;-inkscape-font-specification:CMTI10;writing-mode:lr-tb;fill:#000000;fill-opacity:1;fill-rule:nonzero;stroke:none"
       id="text72">
      <tspan
         x="547.32074 553.68555 560.05042 566.41528 572.78015 579.14496 585.50983 591.87469 598.23956"
         y="181.48462"
         sodipodi:role="line"
         id="tspan74">1/07/2015</tspan>
    </text>
    <g
       id="g76"
       transform="matrix(1.25,0,0,-1.25,309.73821,200.47086)">
      <path
         d="M 0,0 487.276,0"
         style="fill:none;stroke:#000000;stroke-width:0.398;stroke-linecap:butt;stroke-linejoin:miter;stroke-miterlimit:10;stroke-dasharray:none;stroke-opacity:1"
         id="path78"
         inkscape:connector-curvature="0" />
    </g>
    <g
       id="g80"
       transform="matrix(1.25,0,0,-1.25,309.73821,200.47086)">
      <path
         d="M 0,0 487.276,0"
         style="fill:none;stroke:#000000;stroke-width:0.398;stroke-linecap:butt;stroke-linejoin:miter;stroke-miterlimit:10;stroke-dasharray:none;stroke-opacity:1"
         id="path82"
         inkscape:connector-curvature="0" />
    </g>
    <text
       y="213.10458"
       x="319.45697"
       style="font-variant:normal;font-weight:normal;font-size:12.45324993px;font-family:CMBX10;-inkscape-font-specification:CMBX10;writing-mode:lr-tb;fill:#000000;fill-opacity:1;fill-rule:nonzero;stroke:none"
       id="text84">
      <tspan
         x="319.45697 324.88782 330.45691"
         y="213.10458"
         sodipodi:role="line"
         id="tspan86">Itm</tspan>
      <tspan
         x="320.87445 332.0824 339.24301"
         y="228.04834"
         sodipodi:role="line"
         id="tspan88">No.</tspan>
      <tspan
         x="437.08444 448.06699 454.6311 460.27988 466.64474 472.5426 476.52017 484.47656 490.04565 494.02322 501.18384 617.17212 627.93048 633.10107 674.20807 685.2254 693.18182 697.17181 728.64368 736.4718 744.41571 748.40576"
         y="213.10458"
         sodipodi:role="line"
         id="tspan90">DescriptionQtyUnitFull</tspan>
      <tspan
         x="725.5957 736.33667 743.29803 748.86707"
         y="228.04834"
         sodipodi:role="line"
         id="tspan92">Rate</tspan>
      <tspan
         x="786.06067 795.45172 802.41309 808.31097"
         y="213.10458"
         sodipodi:role="line"
         id="tspan94">Part</tspan>
      <tspan
         x="785.05322 795.79413 802.75549 808.32458"
         y="228.04834"
         sodipodi:role="line"
         id="tspan96">Rate</tspan>
      <tspan
         x="858.047 866.81409 873.97467 879.54376 886.50513"
         y="213.10458"
         sodipodi:role="line"
         id="tspan98">Total</tspan>
    </text>
    <g
       id="g100"
       transform="matrix(1.25,0,0,-1.25,309.73821,232.03336)">
      <path
         d="M 0,0 487.276,0"
         style="fill:none;stroke:#000000;stroke-width:0.398;stroke-linecap:butt;stroke-linejoin:miter;stroke-miterlimit:10;stroke-dasharray:none;stroke-opacity:1"
         id="path102"
         inkscape:connector-curvature="0" />
    </g>
    <g
       id="g104"
       transform="matrix(1.25,0,0,-1.25,309.73821,232.03336)">
      <path
         d="M 0,0 487.276,0"
         style="fill:none;stroke:#000000;stroke-width:0.398;stroke-linecap:butt;stroke-linejoin:miter;stroke-miterlimit:10;stroke-dasharray:none;stroke-opacity:1"
         id="path106"
         inkscape:connector-curvature="0" />
    </g>
    <text
       y="252.69211"
       x="324.09195"
       style="font-variant:normal;font-weight:normal;font-size:12.45324993px;font-family:CMR10;-inkscape-font-specification:CMR10;writing-mode:lr-tb;fill:#000000;fill-opacity:1;fill-rule:nonzero;stroke:none"
       id="text108">
      <tspan
         x="324.09195 330.3186 333.77811"
         y="252.69211"
         sodipodi:role="line"
         id="tspan110">1.1</tspan>
      <tspan
         x="361.82947 374.62891 378.08844 382.96637 386.42587 393.34491 403.71848 407.52417 413.75079 422.78812 430.0434 436.27002 439.72952 446.29987 451.14291"
         y="244.66586"
         sodipodi:role="line"
         id="tspan112">Wiringforpoints</tspan>
      <tspan
         x="361.82947 371.60153 376.47946 382.70609 389.62512 400.69107"
         y="259.61084"
         sodipodi:role="line"
         id="tspan114">GroupC</tspan>
      <tspan
         x="361.82947 371.51559 376.00998 386.74219 395.56284 401.78946"
         y="278.84335"
         sodipodi:role="line"
         id="tspan116">QtyB/F</tspan>
    </text>
    <text
       y="278.84335"
       x="414.06445"
       style="font-variant:normal;font-weight:normal;font-size:12.45324993px;font-family:CMTI10;-inkscape-font-specification:CMTI10;writing-mode:lr-tb;fill:#000000;fill-opacity:1;fill-rule:nonzero;stroke:none"
       id="text118">
      <tspan
         x="414.06445 420.42932 426.79419 435.70572 442.5575 451.46906 459.91608 468.36313 482.2236 490.67062 496.39911 500.21854 509.47504 515.8399 525.38782"
         y="278.84335"
         sodipodi:role="line"
         id="tspan120">5/CLTPEDPg.No.1</tspan>
    </text>
    <text
       y="278.84335"
       x="652.4657"
       style="font-variant:normal;font-weight:normal;font-size:12.45324993px;font-family:CMR10;-inkscape-font-specification:CMR10;writing-mode:lr-tb;fill:#000000;fill-opacity:1;fill-rule:nonzero;stroke:none"
       id="text122">
      <tspan
         x="652.4657 673.63623 681.76324 687.98987 691.44934 698.01971"
         y="278.84335"
         sodipodi:role="line"
         id="tspan124">5Point</tspan>
      <tspan
         x="361.82947 371.51559 376.00998 386.74219 395.56284 401.78946"
         y="298.76959"
         sodipodi:role="line"
         id="tspan126">QtyB/F</tspan>
    </text>
    <text
       y="298.76959"
       x="414.06445"
       style="font-variant:normal;font-weight:normal;font-size:12.45324993px;font-family:CMTI10;-inkscape-font-specification:CMTI10;writing-mode:lr-tb;fill:#000000;fill-opacity:1;fill-rule:nonzero;stroke:none"
       id="text128">
      <tspan
         x="414.06445 420.42932 426.79419 435.70572 442.5575 451.46906 459.91608 468.36313 482.2236 490.67062 496.39911 500.21854 509.47504 515.8399 525.38782"
         y="298.76959"
         sodipodi:role="line"
         id="tspan130">5/CLTPEDPg.No.1</tspan>
    </text>
    <text
       y="298.76959"
       x="652.4657"
       style="font-variant:normal;font-weight:normal;font-size:12.45324993px;font-family:CMR10;-inkscape-font-specification:CMR10;writing-mode:lr-tb;fill:#000000;fill-opacity:1;fill-rule:nonzero;stroke:none"
       id="text132">
      <tspan
         x="652.4657 673.63623 681.76324 687.98987 691.44934 698.01971"
         y="298.76959"
         sodipodi:role="line"
         id="tspan134">5Point</tspan>
      <tspan
         x="361.82947 370.82321 380.50934 388.46945 397.80939 646.23926 652.46588 673.63641 681.76343 687.99005 691.44952 698.0199"
         y="317.86459"
         sodipodi:role="line"
         id="tspan136">TOTAL10Point</tspan>
      <tspan
         x="361.82947 370.65012 376.18433 379.64383 385.52176 398.6749 405.59393 411.12814 417.70096 421.16046 427.38712 432.23016 435.6897 441.91632 452.98227 456.4418 459.90131 470.27859 473.7381 482.72812 488.95471 496.91983 503.14645 509.37308 642.776 649.00262 652.46216 673.63269 681.75964 687.99878 691.4458 698.02863 728.1767 734.40332 740.62994 746.85657 753.08319 756.54266 787.63843 793.86505 800.09167 806.31836 812.54498 816.00446 876.76392 882.99048 889.21716 895.44379 901.67041 905.12988"
         y="335.42334"
         sodipodi:role="line"
         id="tspan138">Belowdeviationlimitof30%6.5Point1235.01235.08027.5</tspan>
      <tspan
         x="361.82947 371.1694 378.43713 384.31506 390.53918 400.23279 407.15182 412.68607 419.25888 422.71838 428.94501 433.78809 437.24759 443.47421 454.54016 457.99969 461.4592 471.83649 475.29602 484.28601 490.51263 498.46527 504.69189 510.91852 642.77728 649.00391 652.46338 673.63391 681.76093 687.98755 691.44708 698.02985 728.17792 734.40454 740.63116 746.85779 753.08441 756.54395 787.63971 793.86633 800.09296 806.31958 812.5462 816.00568 876.76514 882.99176 889.21838 895.44501 901.67163 905.13116"
         y="352.98209"
         sodipodi:role="line"
         id="tspan140">Abovedeviationlimitof30%3.5Point1115.01115.03902.5</tspan>
      <tspan
         x="324.09195 330.31857 333.77811"
         y="393.51083"
         sodipodi:role="line"
         id="tspan142">2.1</tspan>
      <tspan
         x="361.82947 374.62891 378.08844 382.96637 386.42587 393.34491 403.71848 407.52417 413.75079 422.78815 428.32236 431.78186 436.64734 442.19403 449.10059 452.56012 457.40317 467.78918 472.70074 479.61978 486.53879 496.91608 503.14273 506.60223"
         y="385.48584"
         sodipodi:role="line"
         id="tspan144">Wiringforcircuit/submain</tspan>
      <tspan
         x="361.82947 372.31512 385.92651 392.15311 395.61264 406.09827 411.00983 417.58267 426.9201 437.29742 451.93372 465.8913 476.37695 489.98834 496.21497 499.6745 510.16013 515.07166 521.64453 530.98193 541.35925 555.99554 561.52979 567.75641 572.63434 577.47742"
         y="400.4296"
         sodipodi:role="line"
         id="tspan146">2X1.5sq.mm+1X1.5sq.mmearth</tspan>
      <tspan
         x="361.82947 370.82321 374.28271 379.16068"
         y="415.37335"
         sodipodi:role="line"
         id="tspan148">wire</tspan>
      <tspan
         x="361.82947 371.51559 376.00998 386.74219 395.56284 401.78946"
         y="432.18585"
         sodipodi:role="line"
         id="tspan150">QtyB/F</tspan>
    </text>
    <text
       y="432.18585"
       x="414.06445"
       style="font-variant:normal;font-weight:normal;font-size:12.45324993px;font-family:CMTI10;-inkscape-font-specification:CMTI10;writing-mode:lr-tb;fill:#000000;fill-opacity:1;fill-rule:nonzero;stroke:none"
       id="text152">
      <tspan
         x="414.06445 420.42932 426.79419 435.70572 442.5575 451.46906 459.91608 468.36313 482.2236 490.67062 496.39911 500.21854 509.47504 515.8399 525.38782"
         y="432.18585"
         sodipodi:role="line"
         id="tspan154">5/CLTPEDPg.No.1</tspan>
    </text>
    <text
       y="432.18585"
       x="636.55322"
       style="font-variant:normal;font-weight:normal;font-size:12.45324993px;font-family:CMR10;-inkscape-font-specification:CMR10;writing-mode:lr-tb;fill:#000000;fill-opacity:1;fill-rule:nonzero;stroke:none"
       id="text156">
      <tspan
         x="636.55322 642.77985 646.23932 652.46594 673.63647 685.05237 690.58661 695.42969 700.30762"
         y="432.18585"
         sodipodi:role="line"
         id="tspan158">9.45Metre</tspan>
      <tspan
         x="361.82947 370.82318 380.50934 388.46945 397.80939 636.55066 642.77728 646.23676 652.46338 673.63391 685.0498 690.58405 695.42712 700.30505 734.40704 740.63367 746.86029 753.08691 756.54645 793.85638 800.08301 806.30963 812.53625 815.99573 876.76764 882.99426 889.22089 895.44751 901.67413 905.13367"
         y="451.28082"
         sodipodi:role="line"
         id="tspan160">TOTAL9.45Metre200.0200.01890.0</tspan>
      <tspan
         x="324.09198 330.31857 333.77811"
         y="491.80957"
         sodipodi:role="line"
         id="tspan162">2.2</tspan>
      <tspan
         x="361.82947 374.62891 378.08841 382.96637 386.42587 393.34491 403.71844 407.52417 413.75079 422.77567 428.32236 431.78189 436.64734 442.19403 449.10059 452.56009 457.4032 467.78918 472.70074 479.61978 486.53879 496.91611 503.14273 506.60223"
         y="483.78333"
         sodipodi:role="line"
         id="tspan164">Wiringforcircuit/submain</tspan>
      <tspan
         x="361.82947 371.65509 384.58154 394.40717 399.31873 405.89157 414.69351 425.0708 439.04709 452.31976 462.14536 475.07184 484.89746 489.80902 496.38184 505.18381 515.5611 529.53735 535.07159 541.29822 546.17615 551.01923 561.53723 570.53101 573.99048 578.86841"
         y="498.72711"
         sodipodi:role="line"
         id="tspan166">2X4sq.mm+1X4sq.mmearthwire</tspan>
      <tspan
         x="361.82947 371.51559 376.00998 386.74219 395.56284 401.78946"
         y="517.96088"
         sodipodi:role="line"
         id="tspan168">QtyB/F</tspan>
    </text>
    <text
       y="517.96088"
       x="414.06445"
       style="font-variant:normal;font-weight:normal;font-size:12.45324993px;font-family:CMTI10;-inkscape-font-specification:CMTI10;writing-mode:lr-tb;fill:#000000;fill-opacity:1;fill-rule:nonzero;stroke:none"
       id="text170">
      <tspan
         x="414.06445 420.42932 426.79419 435.70572 442.5575 451.46906 459.91608 468.36313 482.2236 490.67062 496.39911 500.21854 509.47504 515.8399 525.38782"
         y="517.96088"
         sodipodi:role="line"
         id="tspan172">5/CLTPEDPg.No.1</tspan>
    </text>
    <text
       y="517.96088"
       x="636.55322"
       style="font-variant:normal;font-weight:normal;font-size:12.45324993px;font-family:CMR10;-inkscape-font-specification:CMR10;writing-mode:lr-tb;fill:#000000;fill-opacity:1;fill-rule:nonzero;stroke:none"
       id="text174">
      <tspan
         x="636.55322 642.77985 649.00647 652.46594 673.63647 685.05237 690.58661 695.42969 700.30762"
         y="517.96088"
         sodipodi:role="line"
         id="tspan176">37.1Metre</tspan>
      <tspan
         x="361.82947 370.82318 380.50934 388.46945 397.80939 636.55066 642.77728 649.00391 652.46338 673.63391 685.0498 690.58405 695.42712 700.30505 734.40704 740.63367 746.86029 753.08691 756.54645 793.85638 800.08301 806.30963 812.53625 815.99573 870.54102 876.76764 882.99426 889.22089 895.44751 901.67413 905.13367"
         y="537.05585"
         sodipodi:role="line"
         id="tspan178">TOTAL37.1Metre300.0300.011130.0</tspan>
      <tspan
         x="324.09198 330.31857 333.77811"
         y="577.58459"
         sodipodi:role="line"
         id="tspan180">2.3</tspan>
      <tspan
         x="361.82947 374.62891 378.08841 382.96637 386.42587 393.34491 403.71844 407.52417 413.75079 422.77567 428.32236 431.78189 436.64734 442.19403 449.10059 452.56009 457.4032 467.78918 472.70074 479.61978 486.53879 496.91611 503.14273 506.60223"
         y="569.55957"
         sodipodi:role="line"
         id="tspan182">Wiringforcircuit/submain</tspan>
      <tspan
         x="361.82947 371.65509 384.58154 394.40717 399.31873 405.89157 414.69351 425.0708 439.04709 452.31976 462.14536 475.07184 484.89746 489.80902 496.38184 505.18381 515.5611 529.53735 535.07159 541.29822 546.17615 551.01923 561.53723 570.53101 573.99048 578.86841"
         y="584.50336"
         sodipodi:role="line"
         id="tspan184">2X6sq.mm+1X6sq.mmearthwire</tspan>
      <tspan
         x="361.82947 371.51559 376.00998 386.74219 395.56284 401.78946"
         y="603.73712"
         sodipodi:role="line"
         id="tspan186">QtyB/F</tspan>
    </text>
    <text
       y="603.73712"
       x="414.06445"
       style="font-variant:normal;font-weight:normal;font-size:12.45324993px;font-family:CMTI10;-inkscape-font-specification:CMTI10;writing-mode:lr-tb;fill:#000000;fill-opacity:1;fill-rule:nonzero;stroke:none"
       id="text188">
      <tspan
         x="414.06445 420.42932 426.79419 435.70572 442.5575 451.46906 459.91608 468.36313 482.2236 490.67062 496.39911 500.21854 509.47504 515.8399 525.38782"
         y="603.73712"
         sodipodi:role="line"
         id="tspan190">5/CLTPEDPg.No.1</tspan>
    </text>
    <text
       y="603.73712"
       x="642.7807"
       style="font-variant:normal;font-weight:normal;font-size:12.45324993px;font-family:CMR10;-inkscape-font-specification:CMR10;writing-mode:lr-tb;fill:#000000;fill-opacity:1;fill-rule:nonzero;stroke:none"
       id="text192">
      <tspan
         x="642.7807 649.00732 652.46686 673.63739 685.05328 690.58746 695.43054 700.30847"
         y="603.73712"
         sodipodi:role="line"
         id="tspan194">3.4Metre</tspan>
      <tspan
         x="361.82947 370.82321 380.50934 388.46945 397.80942 642.77728 649.00391 652.46338 673.63391 685.0498 690.58405 695.42712 700.30505 734.40704 740.63367 746.86029 753.08691 756.54645 793.85638 800.08301 806.30963 812.53625 815.99573 876.76764 882.99426 889.22089 895.44751 901.67413 905.13361"
         y="622.83209"
         sodipodi:role="line"
         id="tspan196">TOTAL3.4Metre380.0380.01292.0</tspan>
    </text>
    <g
       id="g198"
       transform="matrix(1.25,0,0,-1.25,309.73821,642.50836)">
      <path
         d="M 0,0 487.276,0"
         style="fill:none;stroke:#000000;stroke-width:0.398;stroke-linecap:butt;stroke-linejoin:miter;stroke-miterlimit:10;stroke-dasharray:none;stroke-opacity:1"
         id="path200"
         inkscape:connector-curvature="0" />
    </g>
    <g
       id="g202"
       transform="matrix(1.25,0,0,-1.25,309.73821,642.50836)">
      <path
         d="M 0,0 487.276,0"
         style="fill:none;stroke:#000000;stroke-width:0.398;stroke-linecap:butt;stroke-linejoin:miter;stroke-miterlimit:10;stroke-dasharray:none;stroke-opacity:1"
         id="path204"
         inkscape:connector-curvature="0" />
    </g>
    <text
       y="655.03711"
       x="361.82947"
       style="font-variant:normal;font-weight:normal;font-size:12.45324993px;font-family:CMBX10;-inkscape-font-specification:CMBX10;writing-mode:lr-tb;fill:#000000;fill-opacity:1;fill-rule:nonzero;stroke:none"
       id="text206">
      <tspan
         x="361.82947 371.79205 382.55042 391.3175 402.14438 415.54034 426.55771 436.34723 446.30981 457.06818 467.65219 477.28354 487.24615 501.42542 512.25226 525.84747 536.60583 547.62323 558.83118 864.42151 871.58209 878.74268 885.90332 893.06396 900.22455 904.20215"
         y="655.03711"
         sodipodi:role="line"
         id="tspan208">TOTALUPTODATEAMOUNT26242.0</tspan>
      <tspan
         x="361.82947 370.44339 381.27023 389.22662 403.9588 414.14682 419.57767 428.19159 441.58755 452.4144 466.00961 476.76797 487.78537 498.99329 864.42151 871.58209 878.74268 885.90332 893.06396 900.22455 904.20215"
         y="671.80084"
         sodipodi:role="line"
         id="tspan210">LASTBILLAMOUNT20487.0</tspan>
    </text>
    <g
       id="g212"
       transform="matrix(1.25,0,0,-1.25,309.73821,676.53336)">
      <path
         d="M 0,0 487.276,0"
         style="fill:none;stroke:#000000;stroke-width:0.398;stroke-linecap:butt;stroke-linejoin:miter;stroke-miterlimit:10;stroke-dasharray:none;stroke-opacity:1"
         id="path214"
         inkscape:connector-curvature="0" />
    </g>
    <g
       id="g216"
       transform="matrix(1.25,0,0,-1.25,309.73821,676.53336)">
      <path
         d="M 0,0 487.276,0"
         style="fill:none;stroke:#000000;stroke-width:0.398;stroke-linecap:butt;stroke-linejoin:miter;stroke-miterlimit:10;stroke-dasharray:none;stroke-opacity:1"
         id="path218"
         inkscape:connector-curvature="0" />
    </g>
    <text
       y="689.06335"
       x="361.82947"
       style="font-variant:normal;font-weight:normal;font-size:12.45324993px;font-family:CMBX10;-inkscape-font-specification:CMBX10;writing-mode:lr-tb;fill:#000000;fill-opacity:1;fill-rule:nonzero;stroke:none"
       id="text220">
      <tspan
         x="361.82947 369.78586 375.21671 386.42462 396.76831 410.94757 420.73709 431.478 440.88766 451.71454 457.14539 467.90375 478.92114 491.65958 502.48642 516.08167 526.84003 537.85736 549.06531 871.57959 878.74023 885.90082 893.06146 900.22205 904.19965"
         y="689.06335"
         sodipodi:role="line"
         id="tspan222">SINCEPREVIOUSAMOUNT5755.0</tspan>
    </text>
    <g
       id="g224"
       transform="matrix(1.25,0,0,-1.25,309.73821,693.79461)">
      <path
         d="M 0,0 487.276,0"
         style="fill:none;stroke:#000000;stroke-width:0.398;stroke-linecap:butt;stroke-linejoin:miter;stroke-miterlimit:10;stroke-dasharray:none;stroke-opacity:1"
         id="path226"
         inkscape:connector-curvature="0" />
    </g>
    <g
       id="g228"
       transform="matrix(1.25,0,0,-1.25,309.73821,693.79461)">
      <path
         d="M 0,0 487.276,0"
         style="fill:none;stroke:#000000;stroke-width:0.398;stroke-linecap:butt;stroke-linejoin:miter;stroke-miterlimit:10;stroke-dasharray:none;stroke-opacity:1"
         id="path230"
         inkscape:connector-curvature="0" />
    </g>
  </g>
</svg>
