<?xml version="1.0" encoding="UTF-8" standalone="no"?>
<!-- Created with Inkscape (http://www.inkscape.org/) -->

<svg
   xmlns:dc="http://purl.org/dc/elements/1.1/"
   xmlns:cc="http://creativecommons.org/ns#"
   xmlns:rdf="http://www.w3.org/1999/02/22-rdf-syntax-ns#"
   xmlns:svg="http://www.w3.org/2000/svg"
   xmlns="http://www.w3.org/2000/svg"
   xmlns:sodipodi="http://sodipodi.sourceforge.net/DTD/sodipodi-0.dtd"
   xmlns:inkscape="http://www.inkscape.org/namespaces/inkscape"
   width="181.90015mm"
   height="105.7526mm"
   viewBox="0 0 644.52808 374.71394"
   id="svg4126"
   version="1.1"
   inkscape:version="0.91 r13725"
   sodipodi:docname="measurementNNNNNN.svg">
  <defs
     id="defs4128" />
  <sodipodi:namedview
     id="base"
     pagecolor="#ffffff"
     bordercolor="#666666"
     borderopacity="1.0"
     inkscape:pageopacity="0.0"
     inkscape:pageshadow="2"
     inkscape:zoom="1.4"
     inkscape:cx="270.90282"
     inkscape:cy="291.60385"
     inkscape:document-units="px"
     inkscape:current-layer="layer1"
     showgrid="false"
     fit-margin-top="5"
     fit-margin-left="5"
     fit-margin-right="5"
     fit-margin-bottom="5"
     inkscape:window-width="1366"
     inkscape:window-height="703"
     inkscape:window-x="0"
     inkscape:window-y="27"
     inkscape:window-maximized="1" />
  <metadata
     id="metadata4131">
    <rdf:RDF>
      <cc:Work
         rdf:about="">
        <dc:format>image/svg+xml</dc:format>
        <dc:type
           rdf:resource="http://purl.org/dc/dcmitype/StillImage" />
        <dc:title></dc:title>
      </cc:Work>
    </rdf:RDF>
  </metadata>
  <g
     inkscape:label="Layer 1"
     inkscape:groupmode="layer"
     id="layer1"
     transform="translate(19.406892,-75.005234)">
    <text
       y="101.26514"
       x="-1.6903569"
       style="font-variant:normal;font-weight:normal;font-size:12.45324993px;font-family:CMBX10;-inkscape-font-specification:CMBX10;writing-mode:lr-tb;fill:#000000;fill-opacity:1;fill-rule:nonzero;stroke:none"
       id="text76">
      <tspan
         x="-1.6903569 3.7405057 9.3095989 15.873707 32.577251 43.785179 50.945793 54.923367 62.083981 66.061554"
         y="101.26514"
         sodipodi:role="line"
         id="tspan78">ItemNo.6.1</tspan>
    </text>
    <text
       y="116.20889"
       x="-1.6903569"
       style="font-variant:normal;font-weight:normal;font-size:12.45324993px;font-family:CMR10;-inkscape-font-specification:CMR10;writing-mode:lr-tb;fill:#000000;fill-opacity:1;fill-rule:nonzero;stroke:none"
       id="text80">
      <tspan
         x="-1.6903569 6.7853255 11.663262 17.541197 24.114021 27.573536 34.492561 37.952076 44.871098 54.186131 60.412758 67.331787 77.339218 84.25824 90.83107 94.290581 101.20961 110.52464 114.33036 120.55697 124.01651 127.476 133.35394 142.34767 145.80719 152.72621 162.04124 166.54808 173.1209 180.37616 189.01125 195.93027 200.79576 207.02238 211.9464 216.85797 223.08458 229.31122 236.23024 246.23766 256.61496 262.14917 266.99225 273.21887 279.76678 285.64221 291.86884 295.32837 301.55249 307.08673 315.09915 320.63336 326.86002 333.77902 337.58472 343.81134 348.6893 359.06659 362.52609 369.44513 378.76016 383.60321 392.91824 397.41513 404.33414 408.4848 414.71146 420.93808 430.25311 436.47974 446.48715 452.02136 458.59421 462.05371 466.9653 471.80835 475.26788 482.18689 491.50192 501.27399 508.85925 515.77826 519.23779 526.50549 535.12811 538.58765 542.04718 548.96619 557.58881 561.04834 567.96741 573.50159 576.96112 583.88013 590.79913 594.25867 601.17767"
         y="116.20889"
         sodipodi:role="line"
         id="tspan82">Providingandfxingfollowingtypebrass/gunmetalvalvesconformingtoIS-778onexistingGIpipelineincluding</tspan>
      <tspan
         x="-1.6903569 3.1527123 10.071736 14.949675 20.483898 26.710524 33.629551 37.089066 44.008091 50.234715 57.84116 63.375385 70.294418 75.137482 79.980553 83.440063 90.359093 100.73264 106.27932 111.10994 120.80354 127.03018 136.08867 140.9666 146.50084 153.07365 159.99269 163.45221 168.33014 173.86436 180.78339"
         y="131.15263"
         sodipodi:role="line"
         id="tspan84">threading,cuttingetcasrequired.</tspan>
      <tspan
         x="-1.6903569 4.5362682 14.909824 25.287117 39.823795 46.742825 50.202335 60.575893 70.347961 76.574593 81.417656 91.098808 96.98671 103.21333 106.67284 112.89698 122.57814 127.42122 134.34024 139.87445 144.7524 150.28662 158.94412 164.47833 175.5443 180.03868 186.6115 193.87923 199.41345"
         y="146.09639"
         sodipodi:role="line"
         id="tspan86">40mmdiaGatevalve(Screwedtype)</tspan>
    </text>
    <text
       y="161.04013"
       x="-1.6903569"
       style="font-variant:normal;font-weight:normal;font-size:12.45324993px;font-family:CMBX10;-inkscape-font-specification:CMBX10;writing-mode:lr-tb;fill:#000000;fill-opacity:1;fill-rule:nonzero;stroke:none"
       id="text88">
      <tspan
         x="-1.6903569 3.7405057 9.3095989 15.873707 32.577251 43.785179 50.945793 54.923367 62.083981 66.061554"
         y="161.04013"
         sodipodi:role="line"
         id="tspan90">ItemNo.6.2</tspan>
    </text>
    <text
       y="175.98389"
       x="-1.6903569"
       style="font-variant:normal;font-weight:normal;font-size:12.45324993px;font-family:CMR10;-inkscape-font-specification:CMR10;writing-mode:lr-tb;fill:#000000;fill-opacity:1;fill-rule:nonzero;stroke:none"
       id="text92">
      <tspan
         x="-1.6903569 6.7853255 11.663262 17.541197 24.114021 27.573536 34.492561 37.952076 44.871098 54.186131 60.412758 67.331787 77.339218 84.25824 90.83107 94.290581 101.20961 110.52464 114.33036 120.55697 124.01651 127.476 133.35394 142.34767 145.80719 152.72621 162.04124 166.54808 173.1209 180.37616 189.01125 195.93027 200.79576 207.02238 211.9464 216.85797 223.08458 229.31122 236.23024 246.23766 256.61496 262.14917 266.99225 273.21887 279.76678 285.64221 291.86884 295.32837 301.55249 307.08673 315.09915 320.63336 326.86002 333.77902 337.58472 343.81134 348.6893 359.06659 362.52609 369.44513 378.76016 383.60321 392.91824 397.41513 404.33414 408.4848 414.71146 420.93808 430.25311 436.47974 446.48715 452.02136 458.59421 462.05371 466.9653 471.80835 475.26788 482.18689 491.50192 501.27399 508.85925 515.77826 519.23779 526.50549 535.12811 538.58765 542.04718 548.96619 557.58881 561.04834 567.96741 573.50159 576.96112 583.88013 590.79913 594.25867 601.17767"
         y="175.98389"
         sodipodi:role="line"
         id="tspan94">Providingandfxingfollowingtypebrass/gunmetalvalvesconformingtoIS-778onexistingGIpipelineincluding</tspan>
      <tspan
         x="-1.6903569 3.1527123 10.071736 14.949675 20.483898 26.710524 33.629551 37.089066 44.008091 50.234715 57.84116 63.375385 70.294418 75.137482 79.980553 83.440063 90.359093 100.73264 106.27932 111.10994 120.80354 127.03018 136.08867 140.9666 146.50084 153.07365 159.99269 163.45221 168.33014 173.86436 180.78339"
         y="190.92888"
         sodipodi:role="line"
         id="tspan96">threading,cuttingetcasrequired.</tspan>
      <tspan
         x="-1.6903569 4.5362682 14.909824 25.287117 39.823795 46.742825 50.202335 60.575893 67.494926 73.72155 78.599487 82.058998 87.593216 93.819847 100.39019 105.23325 111.45988 119.06633 124.26432 131.18333 136.71756 141.90311 152.62285 158.51074 164.73738 168.19688 174.42102 184.10217 188.94525 195.86427 201.3985 206.27643 211.81067 220.46815 226.00238 237.06834 241.56271 248.13554 255.40324 260.93747"
         y="205.87263"
         sodipodi:role="line"
         id="tspan98">40mmdiahorizontalcheckvalve(Screwedtype)</tspan>
    </text>
    <text
       y="220.81639"
       x="-1.6903569"
       style="font-variant:normal;font-weight:normal;font-size:12.45324993px;font-family:CMTI10;-inkscape-font-specification:CMTI10;writing-mode:lr-tb;fill:#000000;fill-opacity:1;fill-rule:nonzero;stroke:none"
       id="text100">
      <tspan
         x="-1.6903569 3.4017773 11.850062 17.578556 27.762825 34.127682 39.379219 45.107712 50.199844 54.019257"
         y="220.81639"
         sodipodi:role="line"
         id="tspan102">(Remarks:)</tspan>
    </text>
    <g
       id="g104"
       transform="matrix(1.25,0,0,-1.25,-1.6903568,236.00889)">
      <path
         d="M 0,0 487.276,0"
         style="fill:none;stroke:#000000;stroke-width:0.398;stroke-linecap:butt;stroke-linejoin:miter;stroke-miterlimit:10;stroke-dasharray:none;stroke-opacity:1"
         id="path106"
         inkscape:connector-curvature="0" />
    </g>
    <g
       id="g108"
       transform="matrix(1.25,0,0,-1.25,-1.6903568,236.00889)">
      <path
         d="M 0,0 487.276,0"
         style="fill:none;stroke:#000000;stroke-width:0.398;stroke-linecap:butt;stroke-linejoin:miter;stroke-miterlimit:10;stroke-dasharray:none;stroke-opacity:1"
         id="path110"
         inkscape:connector-curvature="0" />
    </g>
    <g
       id="g112"
       transform="matrix(1.25,0,0,-1.25,-1.4416068,282.26639)">
      <path
         d="M 0,0 0,36.806"
         style="fill:none;stroke:#000000;stroke-width:0.398;stroke-linecap:butt;stroke-linejoin:miter;stroke-miterlimit:10;stroke-dasharray:none;stroke-opacity:1"
         id="path114"
         inkscape:connector-curvature="0" />
    </g>
    <text
       y="248.64264"
       x="6.2796431"
       style="font-variant:normal;font-weight:normal;font-size:12.45324993px;font-family:CMBX10;-inkscape-font-specification:CMBX10;writing-mode:lr-tb;fill:#000000;fill-opacity:1;fill-rule:nonzero;stroke:none"
       id="text116">
      <tspan
         x="6.2796431 14.236024 18.213593"
         y="248.64264"
         sodipodi:role="line"
         id="tspan118">Sl.</tspan>
      <tspan
         x="6.2796431 17.487568 24.648186"
         y="263.5864"
         sodipodi:role="line"
         id="tspan120">No.</tspan>
    </text>
    <g
       id="g122"
       transform="matrix(1.25,0,0,-1.25,28.652143,282.26639)">
      <path
         d="M 0,0 0,36.806"
         style="fill:none;stroke:#000000;stroke-width:0.398;stroke-linecap:butt;stroke-linejoin:miter;stroke-miterlimit:10;stroke-dasharray:none;stroke-opacity:1"
         id="path124"
         inkscape:connector-curvature="0" />
    </g>
    <text
       y="248.64264"
       x="36.372143"
       style="font-variant:normal;font-weight:normal;font-size:12.45324993px;font-family:CMBX10;-inkscape-font-specification:CMBX10;writing-mode:lr-tb;fill:#000000;fill-opacity:1;fill-rule:nonzero;stroke:none"
       id="text126">
      <tspan
         x="36.372143 47.354664 53.91877 59.567566 65.932426 71.830284 75.807854 83.764236 89.333328 93.310898 100.47152"
         y="248.64264"
         sodipodi:role="line"
         id="tspan128">Description</tspan>
    </text>
    <g
       id="g130"
       transform="matrix(1.25,0,0,-1.25,190.60214,282.26639)">
      <path
         d="M 0,0 0,36.806"
         style="fill:none;stroke:#000000;stroke-width:0.398;stroke-linecap:butt;stroke-linejoin:miter;stroke-miterlimit:10;stroke-dasharray:none;stroke-opacity:1"
         id="path132"
         inkscape:connector-curvature="0" />
    </g>
    <text
       y="248.64264"
       x="198.32339"
       style="font-variant:normal;font-weight:normal;font-size:12.45324993px;font-family:CMBX10;-inkscape-font-specification:CMBX10;writing-mode:lr-tb;fill:#000000;fill-opacity:1;fill-rule:nonzero;stroke:none"
       id="text134">
      <tspan
         x="198.32339 203.75426 209.32335 215.88747"
         y="248.64264"
         sodipodi:role="line"
         id="tspan136">Item</tspan>
      <tspan
         x="198.32339 209.53133 216.69194"
         y="263.5864"
         sodipodi:role="line"
         id="tspan138">No.</tspan>
      <tspan
         x="198.32339 205.48401 209.46158"
         y="278.53012"
         sodipodi:role="line"
         id="tspan140">6.1</tspan>
    </text>
    <g
       id="g142"
       transform="matrix(1.25,0,0,-1.25,242.67089,282.26639)">
      <path
         d="M 0,0 0,36.806"
         style="fill:none;stroke:#000000;stroke-width:0.398;stroke-linecap:butt;stroke-linejoin:miter;stroke-miterlimit:10;stroke-dasharray:none;stroke-opacity:1"
         id="path144"
         inkscape:connector-curvature="0" />
    </g>
    <text
       y="248.64264"
       x="257.52087"
       style="font-variant:normal;font-weight:normal;font-size:12.45324993px;font-family:CMBX10;-inkscape-font-specification:CMBX10;writing-mode:lr-tb;fill:#000000;fill-opacity:1;fill-rule:nonzero;stroke:none"
       id="text146">
      <tspan
         x="257.52087 262.95175 268.52084 275.08493"
         y="248.64264"
         sodipodi:role="line"
         id="tspan148">Item</tspan>
      <tspan
         x="264.67212 275.88007 283.04068"
         y="263.5864"
         sodipodi:role="line"
         id="tspan150">No.</tspan>
      <tspan
         x="268.71964 275.88025 279.85782"
         y="278.53012"
         sodipodi:role="line"
         id="tspan152">6.2</tspan>
    </text>
    <g
       id="g154"
       transform="matrix(1.25,0,0,-1.25,294.74089,282.26639)">
      <path
         d="M 0,0 0,36.806"
         style="fill:none;stroke:#000000;stroke-width:0.398;stroke-linecap:butt;stroke-linejoin:miter;stroke-miterlimit:10;stroke-dasharray:none;stroke-opacity:1"
         id="path156"
         inkscape:connector-curvature="0" />
    </g>
    <g
       id="g158"
       transform="matrix(1.25,0,0,-1.25,346.80964,282.26639)">
      <path
         d="M 0,0 0,36.806"
         style="fill:none;stroke:#000000;stroke-width:0.398;stroke-linecap:butt;stroke-linejoin:miter;stroke-miterlimit:10;stroke-dasharray:none;stroke-opacity:1"
         id="path160"
         inkscape:connector-curvature="0" />
    </g>
    <g
       id="g162"
       transform="matrix(1.25,0,0,-1.25,398.87839,282.26639)">
      <path
         d="M 0,0 0,36.806"
         style="fill:none;stroke:#000000;stroke-width:0.398;stroke-linecap:butt;stroke-linejoin:miter;stroke-miterlimit:10;stroke-dasharray:none;stroke-opacity:1"
         id="path164"
         inkscape:connector-curvature="0" />
    </g>
    <g
       id="g166"
       transform="matrix(1.25,0,0,-1.25,450.94839,282.26639)">
      <path
         d="M 0,0 0,36.806"
         style="fill:none;stroke:#000000;stroke-width:0.398;stroke-linecap:butt;stroke-linejoin:miter;stroke-miterlimit:10;stroke-dasharray:none;stroke-opacity:1"
         id="path168"
         inkscape:connector-curvature="0" />
    </g>
    <g
       id="g170"
       transform="matrix(1.25,0,0,-1.25,503.01714,282.26639)">
      <path
         d="M 0,0 0,36.806"
         style="fill:none;stroke:#000000;stroke-width:0.398;stroke-linecap:butt;stroke-linejoin:miter;stroke-miterlimit:10;stroke-dasharray:none;stroke-opacity:1"
         id="path172"
         inkscape:connector-curvature="0" />
    </g>
    <g
       id="g174"
       transform="matrix(1.25,0,0,-1.25,555.08589,282.26639)">
      <path
         d="M 0,0 0,36.806"
         style="fill:none;stroke:#000000;stroke-width:0.398;stroke-linecap:butt;stroke-linejoin:miter;stroke-miterlimit:10;stroke-dasharray:none;stroke-opacity:1"
         id="path176"
         inkscape:connector-curvature="0" />
    </g>
    <g
       id="g178"
       transform="matrix(1.25,0,0,-1.25,607.15589,282.26639)">
      <path
         d="M 0,0 0,36.806"
         style="fill:none;stroke:#000000;stroke-width:0.398;stroke-linecap:butt;stroke-linejoin:miter;stroke-miterlimit:10;stroke-dasharray:none;stroke-opacity:1"
         id="path180"
         inkscape:connector-curvature="0" />
    </g>
    <g
       id="g182"
       transform="matrix(1.25,0,0,-1.25,-1.6903568,282.51514)">
      <path
         d="M 0,0 487.276,0"
         style="fill:none;stroke:#000000;stroke-width:0.398;stroke-linecap:butt;stroke-linejoin:miter;stroke-miterlimit:10;stroke-dasharray:none;stroke-opacity:1"
         id="path184"
         inkscape:connector-curvature="0" />
    </g>
    <g
       id="g186"
       transform="matrix(1.25,0,0,-1.25,-1.6903568,282.51514)">
      <path
         d="M 0,0 487.276,0"
         style="fill:none;stroke:#000000;stroke-width:0.398;stroke-linecap:butt;stroke-linejoin:miter;stroke-miterlimit:10;stroke-dasharray:none;stroke-opacity:1"
         id="path188"
         inkscape:connector-curvature="0" />
    </g>
    <g
       id="g190"
       transform="matrix(1.25,0,0,-1.25,-1.4416068,313.82889)">
      <path
         d="M 0,0 0,24.851"
         style="fill:none;stroke:#000000;stroke-width:0.398;stroke-linecap:butt;stroke-linejoin:miter;stroke-miterlimit:10;stroke-dasharray:none;stroke-opacity:1"
         id="path192"
         inkscape:connector-curvature="0" />
    </g>
    <g
       id="g194"
       transform="matrix(1.25,0,0,-1.25,28.652143,313.82889)">
      <path
         d="M 0,0 0,24.851"
         style="fill:none;stroke:#000000;stroke-width:0.398;stroke-linecap:butt;stroke-linejoin:miter;stroke-miterlimit:10;stroke-dasharray:none;stroke-opacity:1"
         id="path196"
         inkscape:connector-curvature="0" />
    </g>
    <g
       id="g198"
       transform="matrix(1.25,0,0,-1.25,190.60214,313.82889)">
      <path
         d="M 0,0 0,24.851"
         style="fill:none;stroke:#000000;stroke-width:0.398;stroke-linecap:butt;stroke-linejoin:miter;stroke-miterlimit:10;stroke-dasharray:none;stroke-opacity:1"
         id="path200"
         inkscape:connector-curvature="0" />
    </g>
    <text
       y="295.1489"
       x="198.32339"
       style="font-variant:normal;font-weight:normal;font-size:12.45324993px;font-family:CMTI10;-inkscape-font-specification:CMTI10;writing-mode:lr-tb;fill:#000000;fill-opacity:1;fill-rule:nonzero;stroke:none"
       id="text202">
      <tspan
         x="198.32339 207.95723 214.32208 218.45906"
         y="295.1489"
         sodipodi:role="line"
         id="tspan204">Gate</tspan>
      <tspan
         x="198.32339 206.621 212.98586 216.1689 221.8974"
         y="310.09262"
         sodipodi:role="line"
         id="tspan206">Valve</tspan>
    </text>
    <g
       id="g208"
       transform="matrix(1.25,0,0,-1.25,242.67089,313.82889)">
      <path
         d="M 0,0 0,24.851"
         style="fill:none;stroke:#000000;stroke-width:0.398;stroke-linecap:butt;stroke-linejoin:miter;stroke-miterlimit:10;stroke-dasharray:none;stroke-opacity:1"
         id="path210"
         inkscape:connector-curvature="0" />
    </g>
    <text
       y="295.1489"
       x="255.19466"
       style="font-variant:normal;font-weight:normal;font-size:12.45324993px;font-family:CMTI10;-inkscape-font-specification:CMTI10;writing-mode:lr-tb;fill:#000000;fill-opacity:1;fill-rule:nonzero;stroke:none"
       id="text212">
      <tspan
         x="255.19466 264.10617 270.47104 275.56442 281.29291"
         y="295.1489"
         sodipodi:role="line"
         id="tspan214">Check</tspan>
      <tspan
         x="256.77713 265.07474 271.43958 274.62265 280.35114"
         y="310.09262"
         sodipodi:role="line"
         id="tspan216">Valve</tspan>
    </text>
    <g
       id="g218"
       transform="matrix(1.25,0,0,-1.25,294.74089,313.82889)">
      <path
         d="M 0,0 0,24.851"
         style="fill:none;stroke:#000000;stroke-width:0.398;stroke-linecap:butt;stroke-linejoin:miter;stroke-miterlimit:10;stroke-dasharray:none;stroke-opacity:1"
         id="path220"
         inkscape:connector-curvature="0" />
    </g>
    <g
       id="g222"
       transform="matrix(1.25,0,0,-1.25,346.80964,313.82889)">
      <path
         d="M 0,0 0,24.851"
         style="fill:none;stroke:#000000;stroke-width:0.398;stroke-linecap:butt;stroke-linejoin:miter;stroke-miterlimit:10;stroke-dasharray:none;stroke-opacity:1"
         id="path224"
         inkscape:connector-curvature="0" />
    </g>
    <g
       id="g226"
       transform="matrix(1.25,0,0,-1.25,398.87839,313.82889)">
      <path
         d="M 0,0 0,24.851"
         style="fill:none;stroke:#000000;stroke-width:0.398;stroke-linecap:butt;stroke-linejoin:miter;stroke-miterlimit:10;stroke-dasharray:none;stroke-opacity:1"
         id="path228"
         inkscape:connector-curvature="0" />
    </g>
    <g
       id="g230"
       transform="matrix(1.25,0,0,-1.25,450.94839,313.82889)">
      <path
         d="M 0,0 0,24.851"
         style="fill:none;stroke:#000000;stroke-width:0.398;stroke-linecap:butt;stroke-linejoin:miter;stroke-miterlimit:10;stroke-dasharray:none;stroke-opacity:1"
         id="path232"
         inkscape:connector-curvature="0" />
    </g>
    <g
       id="g234"
       transform="matrix(1.25,0,0,-1.25,503.01714,313.82889)">
      <path
         d="M 0,0 0,24.851"
         style="fill:none;stroke:#000000;stroke-width:0.398;stroke-linecap:butt;stroke-linejoin:miter;stroke-miterlimit:10;stroke-dasharray:none;stroke-opacity:1"
         id="path236"
         inkscape:connector-curvature="0" />
    </g>
    <g
       id="g238"
       transform="matrix(1.25,0,0,-1.25,555.08589,313.82889)">
      <path
         d="M 0,0 0,24.851"
         style="fill:none;stroke:#000000;stroke-width:0.398;stroke-linecap:butt;stroke-linejoin:miter;stroke-miterlimit:10;stroke-dasharray:none;stroke-opacity:1"
         id="path240"
         inkscape:connector-curvature="0" />
    </g>
    <g
       id="g242"
       transform="matrix(1.25,0,0,-1.25,607.15589,313.82889)">
      <path
         d="M 0,0 0,24.851"
         style="fill:none;stroke:#000000;stroke-width:0.398;stroke-linecap:butt;stroke-linejoin:miter;stroke-miterlimit:10;stroke-dasharray:none;stroke-opacity:1"
         id="path244"
         inkscape:connector-curvature="0" />
    </g>
    <g
       id="g246"
       transform="matrix(1.25,0,0,-1.25,-1.6903568,314.07764)">
      <path
         d="M 0,0 487.276,0"
         style="fill:none;stroke:#000000;stroke-width:0.398;stroke-linecap:butt;stroke-linejoin:miter;stroke-miterlimit:10;stroke-dasharray:none;stroke-opacity:1"
         id="path248"
         inkscape:connector-curvature="0" />
    </g>
    <g
       id="g250"
       transform="matrix(1.25,0,0,-1.25,-1.6903568,314.07764)">
      <path
         d="M 0,0 487.276,0"
         style="fill:none;stroke:#000000;stroke-width:0.398;stroke-linecap:butt;stroke-linejoin:miter;stroke-miterlimit:10;stroke-dasharray:none;stroke-opacity:1"
         id="path252"
         inkscape:connector-curvature="0" />
    </g>
    <g
       id="g254"
       transform="matrix(1.25,0,0,-1.25,-1.4416068,347.81264)">
      <path
         d="M 0,0 0,26.788"
         style="fill:none;stroke:#000000;stroke-width:0.398;stroke-linecap:butt;stroke-linejoin:miter;stroke-miterlimit:10;stroke-dasharray:none;stroke-opacity:1"
         id="path256"
         inkscape:connector-curvature="0" />
    </g>
    <text
       y="326.71014"
       x="10.492143"
       style="font-variant:normal;font-weight:normal;font-size:12.45324993px;font-family:CMR10;-inkscape-font-specification:CMR10;writing-mode:lr-tb;fill:#000000;fill-opacity:1;fill-rule:nonzero;stroke:none"
       id="text258">
      <tspan
         x="10.492143"
         y="326.71014"
         id="tspan260">1</tspan>
    </text>
    <g
       id="g262"
       transform="matrix(1.25,0,0,-1.25,28.652143,347.81264)">
      <path
         d="M 0,0 0,26.788"
         style="fill:none;stroke:#000000;stroke-width:0.398;stroke-linecap:butt;stroke-linejoin:miter;stroke-miterlimit:10;stroke-dasharray:none;stroke-opacity:1"
         id="path264"
         inkscape:connector-curvature="0" />
    </g>
    <text
       y="326.71014"
       x="36.372143"
       style="font-variant:normal;font-weight:normal;font-size:12.45324993px;font-family:CMR10;-inkscape-font-specification:CMR10;writing-mode:lr-tb;fill:#000000;fill-opacity:1;fill-rule:nonzero;stroke:none"
       id="text266">
      <tspan
         x="36.372143 43.468006 49.69463 58.719501 69.096794 75.323425 80.166496 86.39312 91.271049 100.32954 103.78907 110.7081 115.61966 119.07917 125.99818 135.6918 140.60336 147.52238 157.89967"
         y="326.71014"
         sodipodi:role="line"
         id="tspan268">Formotorsinsidesump</tspan>
      <tspan
         x="36.372143 43.291168 48.825394 55.052017 64.076889 70.30352 80.689529 87.262352 94.181381 100.408 105.28595 110.12901 115.66322 120.54118"
         y="341.65512"
         sodipodi:role="line"
         id="tspan270">near24quarters</tspan>
    </text>
    <g
       id="g272"
       transform="matrix(1.25,0,0,-1.25,190.60214,347.81264)">
      <path
         d="M 0,0 0,26.788"
         style="fill:none;stroke:#000000;stroke-width:0.398;stroke-linecap:butt;stroke-linejoin:miter;stroke-miterlimit:10;stroke-dasharray:none;stroke-opacity:1"
         id="path274"
         inkscape:connector-curvature="0" />
    </g>
    <text
       y="326.71014"
       x="198.32339"
       style="font-variant:normal;font-weight:normal;font-size:12.45324993px;font-family:CMR10;-inkscape-font-specification:CMR10;writing-mode:lr-tb;fill:#000000;fill-opacity:1;fill-rule:nonzero;stroke:none"
       id="text276">
      <tspan
         x="198.32339"
         y="326.71014"
         id="tspan278">2</tspan>
    </text>
    <g
       id="g280"
       transform="matrix(1.25,0,0,-1.25,242.67089,347.81264)">
      <path
         d="M 0,0 0,26.788"
         style="fill:none;stroke:#000000;stroke-width:0.398;stroke-linecap:butt;stroke-linejoin:miter;stroke-miterlimit:10;stroke-dasharray:none;stroke-opacity:1"
         id="path282"
         inkscape:connector-curvature="0" />
    </g>
    <text
       y="326.71014"
       x="280.79214"
       style="font-variant:normal;font-weight:normal;font-size:12.45324993px;font-family:CMR10;-inkscape-font-specification:CMR10;writing-mode:lr-tb;fill:#000000;fill-opacity:1;fill-rule:nonzero;stroke:none"
       id="text284">
      <tspan
         x="280.79214"
         y="326.71014"
         id="tspan286">2</tspan>
    </text>
    <g
       id="g288"
       transform="matrix(1.25,0,0,-1.25,294.74089,347.81264)">
      <path
         d="M 0,0 0,26.788"
         style="fill:none;stroke:#000000;stroke-width:0.398;stroke-linecap:butt;stroke-linejoin:miter;stroke-miterlimit:10;stroke-dasharray:none;stroke-opacity:1"
         id="path290"
         inkscape:connector-curvature="0" />
    </g>
    <g
       id="g292"
       transform="matrix(1.25,0,0,-1.25,346.80964,347.81264)">
      <path
         d="M 0,0 0,26.788"
         style="fill:none;stroke:#000000;stroke-width:0.398;stroke-linecap:butt;stroke-linejoin:miter;stroke-miterlimit:10;stroke-dasharray:none;stroke-opacity:1"
         id="path294"
         inkscape:connector-curvature="0" />
    </g>
    <g
       id="g296"
       transform="matrix(1.25,0,0,-1.25,398.87839,347.81264)">
      <path
         d="M 0,0 0,26.788"
         style="fill:none;stroke:#000000;stroke-width:0.398;stroke-linecap:butt;stroke-linejoin:miter;stroke-miterlimit:10;stroke-dasharray:none;stroke-opacity:1"
         id="path298"
         inkscape:connector-curvature="0" />
    </g>
    <g
       id="g300"
       transform="matrix(1.25,0,0,-1.25,450.94839,347.81264)">
      <path
         d="M 0,0 0,26.788"
         style="fill:none;stroke:#000000;stroke-width:0.398;stroke-linecap:butt;stroke-linejoin:miter;stroke-miterlimit:10;stroke-dasharray:none;stroke-opacity:1"
         id="path302"
         inkscape:connector-curvature="0" />
    </g>
    <g
       id="g304"
       transform="matrix(1.25,0,0,-1.25,503.01714,347.81264)">
      <path
         d="M 0,0 0,26.788"
         style="fill:none;stroke:#000000;stroke-width:0.398;stroke-linecap:butt;stroke-linejoin:miter;stroke-miterlimit:10;stroke-dasharray:none;stroke-opacity:1"
         id="path306"
         inkscape:connector-curvature="0" />
    </g>
    <g
       id="g308"
       transform="matrix(1.25,0,0,-1.25,555.08589,347.81264)">
      <path
         d="M 0,0 0,26.788"
         style="fill:none;stroke:#000000;stroke-width:0.398;stroke-linecap:butt;stroke-linejoin:miter;stroke-miterlimit:10;stroke-dasharray:none;stroke-opacity:1"
         id="path310"
         inkscape:connector-curvature="0" />
    </g>
    <g
       id="g312"
       transform="matrix(1.25,0,0,-1.25,607.15589,347.81264)">
      <path
         d="M 0,0 0,26.788"
         style="fill:none;stroke:#000000;stroke-width:0.398;stroke-linecap:butt;stroke-linejoin:miter;stroke-miterlimit:10;stroke-dasharray:none;stroke-opacity:1"
         id="path314"
         inkscape:connector-curvature="0" />
    </g>
    <g
       id="g316"
       transform="matrix(1.25,0,0,-1.25,-1.4416068,378.87639)">
      <path
         d="M 0,0 0,24.851"
         style="fill:none;stroke:#000000;stroke-width:0.398;stroke-linecap:butt;stroke-linejoin:miter;stroke-miterlimit:10;stroke-dasharray:none;stroke-opacity:1"
         id="path318"
         inkscape:connector-curvature="0" />
    </g>
    <text
       y="360.19638"
       x="10.492143"
       style="font-variant:normal;font-weight:normal;font-size:12.45324993px;font-family:CMR10;-inkscape-font-specification:CMR10;writing-mode:lr-tb;fill:#000000;fill-opacity:1;fill-rule:nonzero;stroke:none"
       id="text320">
      <tspan
         x="10.492143"
         y="360.19638"
         id="tspan322">2</tspan>
    </text>
    <g
       id="g324"
       transform="matrix(1.25,0,0,-1.25,28.652143,378.87639)">
      <path
         d="M 0,0 0,24.851"
         style="fill:none;stroke:#000000;stroke-width:0.398;stroke-linecap:butt;stroke-linejoin:miter;stroke-miterlimit:10;stroke-dasharray:none;stroke-opacity:1"
         id="path326"
         inkscape:connector-curvature="0" />
    </g>
    <text
       y="360.19638"
       x="36.372143"
       style="font-variant:normal;font-weight:normal;font-size:12.45324993px;font-family:CMR10;-inkscape-font-specification:CMR10;writing-mode:lr-tb;fill:#000000;fill-opacity:1;fill-rule:nonzero;stroke:none"
       id="text328">
      <tspan
         x="36.372143 43.468006 49.69463 58.719501 69.096794 75.323425 80.166496 86.39312 91.271049 100.32954 103.78907 110.7081 115.61966 119.07917 125.99818 135.6918 141.91843 149.17369 154.70792 161.2907 169.93575 175.46997 178.92949"
         y="360.19638"
         sodipodi:role="line"
         id="tspan330">Formotorsinsideopenwell</tspan>
      <tspan
         x="36.372143 43.291168 48.825394 55.052017 64.076889 73.070625 81.54631 94.345764 108.01817 112.92975 116.38926 121.23233 130.91348 137.14011 147.51741 153.05162"
         y="375.14014"
         sodipodi:role="line"
         id="tspan332">nearCPWDsiteofce</tspan>
    </text>
    <g
       id="g334"
       transform="matrix(1.25,0,0,-1.25,190.60214,378.87639)">
      <path
         d="M 0,0 0,24.851"
         style="fill:none;stroke:#000000;stroke-width:0.398;stroke-linecap:butt;stroke-linejoin:miter;stroke-miterlimit:10;stroke-dasharray:none;stroke-opacity:1"
         id="path336"
         inkscape:connector-curvature="0" />
    </g>
    <text
       y="360.19638"
       x="198.32339"
       style="font-variant:normal;font-weight:normal;font-size:12.45324993px;font-family:CMR10;-inkscape-font-specification:CMR10;writing-mode:lr-tb;fill:#000000;fill-opacity:1;fill-rule:nonzero;stroke:none"
       id="text338">
      <tspan
         x="198.32339"
         y="360.19638"
         id="tspan340">2</tspan>
    </text>
    <g
       id="g342"
       transform="matrix(1.25,0,0,-1.25,242.67089,378.87639)">
      <path
         d="M 0,0 0,24.851"
         style="fill:none;stroke:#000000;stroke-width:0.398;stroke-linecap:butt;stroke-linejoin:miter;stroke-miterlimit:10;stroke-dasharray:none;stroke-opacity:1"
         id="path344"
         inkscape:connector-curvature="0" />
    </g>
    <text
       y="360.19638"
       x="280.79214"
       style="font-variant:normal;font-weight:normal;font-size:12.45324993px;font-family:CMR10;-inkscape-font-specification:CMR10;writing-mode:lr-tb;fill:#000000;fill-opacity:1;fill-rule:nonzero;stroke:none"
       id="text346">
      <tspan
         x="280.79214"
         y="360.19638"
         id="tspan348">2</tspan>
    </text>
    <g
       id="g350"
       transform="matrix(1.25,0,0,-1.25,294.74089,378.87639)">
      <path
         d="M 0,0 0,24.851"
         style="fill:none;stroke:#000000;stroke-width:0.398;stroke-linecap:butt;stroke-linejoin:miter;stroke-miterlimit:10;stroke-dasharray:none;stroke-opacity:1"
         id="path352"
         inkscape:connector-curvature="0" />
    </g>
    <g
       id="g354"
       transform="matrix(1.25,0,0,-1.25,346.80964,378.87639)">
      <path
         d="M 0,0 0,24.851"
         style="fill:none;stroke:#000000;stroke-width:0.398;stroke-linecap:butt;stroke-linejoin:miter;stroke-miterlimit:10;stroke-dasharray:none;stroke-opacity:1"
         id="path356"
         inkscape:connector-curvature="0" />
    </g>
    <g
       id="g358"
       transform="matrix(1.25,0,0,-1.25,398.87839,378.87639)">
      <path
         d="M 0,0 0,24.851"
         style="fill:none;stroke:#000000;stroke-width:0.398;stroke-linecap:butt;stroke-linejoin:miter;stroke-miterlimit:10;stroke-dasharray:none;stroke-opacity:1"
         id="path360"
         inkscape:connector-curvature="0" />
    </g>
    <g
       id="g362"
       transform="matrix(1.25,0,0,-1.25,450.94839,378.87639)">
      <path
         d="M 0,0 0,24.851"
         style="fill:none;stroke:#000000;stroke-width:0.398;stroke-linecap:butt;stroke-linejoin:miter;stroke-miterlimit:10;stroke-dasharray:none;stroke-opacity:1"
         id="path364"
         inkscape:connector-curvature="0" />
    </g>
    <g
       id="g366"
       transform="matrix(1.25,0,0,-1.25,503.01714,378.87639)">
      <path
         d="M 0,0 0,24.851"
         style="fill:none;stroke:#000000;stroke-width:0.398;stroke-linecap:butt;stroke-linejoin:miter;stroke-miterlimit:10;stroke-dasharray:none;stroke-opacity:1"
         id="path368"
         inkscape:connector-curvature="0" />
    </g>
    <g
       id="g370"
       transform="matrix(1.25,0,0,-1.25,555.08589,378.87639)">
      <path
         d="M 0,0 0,24.851"
         style="fill:none;stroke:#000000;stroke-width:0.398;stroke-linecap:butt;stroke-linejoin:miter;stroke-miterlimit:10;stroke-dasharray:none;stroke-opacity:1"
         id="path372"
         inkscape:connector-curvature="0" />
    </g>
    <g
       id="g374"
       transform="matrix(1.25,0,0,-1.25,607.15589,378.87639)">
      <path
         d="M 0,0 0,24.851"
         style="fill:none;stroke:#000000;stroke-width:0.398;stroke-linecap:butt;stroke-linejoin:miter;stroke-miterlimit:10;stroke-dasharray:none;stroke-opacity:1"
         id="path376"
         inkscape:connector-curvature="0" />
    </g>
    <g
       id="g378"
       transform="matrix(1.25,0,0,-1.25,-1.6903568,379.12514)">
      <path
         d="M 0,0 487.276,0"
         style="fill:none;stroke:#000000;stroke-width:0.398;stroke-linecap:butt;stroke-linejoin:miter;stroke-miterlimit:10;stroke-dasharray:none;stroke-opacity:1"
         id="path380"
         inkscape:connector-curvature="0" />
    </g>
    <g
       id="g382"
       transform="matrix(1.25,0,0,-1.25,-1.6903568,379.12514)">
      <path
         d="M 0,0 487.276,0"
         style="fill:none;stroke:#000000;stroke-width:0.398;stroke-linecap:butt;stroke-linejoin:miter;stroke-miterlimit:10;stroke-dasharray:none;stroke-opacity:1"
         id="path384"
         inkscape:connector-curvature="0" />
    </g>
    <g
       id="g386"
       transform="matrix(1.25,0,0,-1.25,-1.4416068,396.13764)">
      <path
         d="M 0,0 0,13.411"
         style="fill:none;stroke:#000000;stroke-width:0.398;stroke-linecap:butt;stroke-linejoin:miter;stroke-miterlimit:10;stroke-dasharray:none;stroke-opacity:1"
         id="path388"
         inkscape:connector-curvature="0" />
    </g>
    <g
       id="g390"
       transform="matrix(1.25,0,0,-1.25,28.652143,396.13764)">
      <path
         d="M 0,0 0,13.411"
         style="fill:none;stroke:#000000;stroke-width:0.398;stroke-linecap:butt;stroke-linejoin:miter;stroke-miterlimit:10;stroke-dasharray:none;stroke-opacity:1"
         id="path392"
         inkscape:connector-curvature="0" />
    </g>
    <text
       y="391.65515"
       x="36.372143"
       style="font-variant:normal;font-weight:normal;font-size:12.45324993px;font-family:CMBX10;-inkscape-font-specification:CMBX10;writing-mode:lr-tb;fill:#000000;fill-opacity:1;fill-rule:nonzero;stroke:none"
       id="text394">
      <tspan
         x="36.372143 46.334743 57.093105 65.860199 76.687057"
         y="391.65515"
         sodipodi:role="line"
         id="tspan396">TOTAL</tspan>
    </text>
    <g
       id="g398"
       transform="matrix(1.25,0,0,-1.25,190.60214,396.13764)">
      <path
         d="M 0,0 0,13.411"
         style="fill:none;stroke:#000000;stroke-width:0.398;stroke-linecap:butt;stroke-linejoin:miter;stroke-miterlimit:10;stroke-dasharray:none;stroke-opacity:1"
         id="path400"
         inkscape:connector-curvature="0" />
    </g>
    <text
       y="391.65515"
       x="198.32339"
       style="font-variant:normal;font-weight:normal;font-size:12.45324993px;font-family:CMBX10;-inkscape-font-specification:CMBX10;writing-mode:lr-tb;fill:#000000;fill-opacity:1;fill-rule:nonzero;stroke:none"
       id="text402">
      <tspan
         x="198.32339"
         y="391.65515"
         id="tspan404">4</tspan>
    </text>
    <g
       id="g406"
       transform="matrix(1.25,0,0,-1.25,242.67089,396.13764)">
      <path
         d="M 0,0 0,13.411"
         style="fill:none;stroke:#000000;stroke-width:0.398;stroke-linecap:butt;stroke-linejoin:miter;stroke-miterlimit:10;stroke-dasharray:none;stroke-opacity:1"
         id="path408"
         inkscape:connector-curvature="0" />
    </g>
    <text
       y="391.65515"
       x="279.85837"
       style="font-variant:normal;font-weight:normal;font-size:12.45324993px;font-family:CMBX10;-inkscape-font-specification:CMBX10;writing-mode:lr-tb;fill:#000000;fill-opacity:1;fill-rule:nonzero;stroke:none"
       id="text410">
      <tspan
         x="279.85837"
         y="391.65515"
         id="tspan412">4</tspan>
    </text>
    <g
       id="g414"
       transform="matrix(1.25,0,0,-1.25,294.74089,396.13764)">
      <path
         d="M 0,0 0,13.411"
         style="fill:none;stroke:#000000;stroke-width:0.398;stroke-linecap:butt;stroke-linejoin:miter;stroke-miterlimit:10;stroke-dasharray:none;stroke-opacity:1"
         id="path416"
         inkscape:connector-curvature="0" />
    </g>
    <g
       id="g418"
       transform="matrix(1.25,0,0,-1.25,346.80964,396.13764)">
      <path
         d="M 0,0 0,13.411"
         style="fill:none;stroke:#000000;stroke-width:0.398;stroke-linecap:butt;stroke-linejoin:miter;stroke-miterlimit:10;stroke-dasharray:none;stroke-opacity:1"
         id="path420"
         inkscape:connector-curvature="0" />
    </g>
    <g
       id="g422"
       transform="matrix(1.25,0,0,-1.25,398.87839,396.13764)">
      <path
         d="M 0,0 0,13.411"
         style="fill:none;stroke:#000000;stroke-width:0.398;stroke-linecap:butt;stroke-linejoin:miter;stroke-miterlimit:10;stroke-dasharray:none;stroke-opacity:1"
         id="path424"
         inkscape:connector-curvature="0" />
    </g>
    <g
       id="g426"
       transform="matrix(1.25,0,0,-1.25,450.94839,396.13764)">
      <path
         d="M 0,0 0,13.411"
         style="fill:none;stroke:#000000;stroke-width:0.398;stroke-linecap:butt;stroke-linejoin:miter;stroke-miterlimit:10;stroke-dasharray:none;stroke-opacity:1"
         id="path428"
         inkscape:connector-curvature="0" />
    </g>
    <g
       id="g430"
       transform="matrix(1.25,0,0,-1.25,503.01714,396.13764)">
      <path
         d="M 0,0 0,13.411"
         style="fill:none;stroke:#000000;stroke-width:0.398;stroke-linecap:butt;stroke-linejoin:miter;stroke-miterlimit:10;stroke-dasharray:none;stroke-opacity:1"
         id="path432"
         inkscape:connector-curvature="0" />
    </g>
    <g
       id="g434"
       transform="matrix(1.25,0,0,-1.25,555.08589,396.13764)">
      <path
         d="M 0,0 0,13.411"
         style="fill:none;stroke:#000000;stroke-width:0.398;stroke-linecap:butt;stroke-linejoin:miter;stroke-miterlimit:10;stroke-dasharray:none;stroke-opacity:1"
         id="path436"
         inkscape:connector-curvature="0" />
    </g>
    <g
       id="g438"
       transform="matrix(1.25,0,0,-1.25,607.15589,396.13764)">
      <path
         d="M 0,0 0,13.411"
         style="fill:none;stroke:#000000;stroke-width:0.398;stroke-linecap:butt;stroke-linejoin:miter;stroke-miterlimit:10;stroke-dasharray:none;stroke-opacity:1"
         id="path440"
         inkscape:connector-curvature="0" />
    </g>
    <g
       id="g442"
       transform="matrix(1.25,0,0,-1.25,-1.6903568,396.38639)">
      <path
         d="M 0,0 487.276,0"
         style="fill:none;stroke:#000000;stroke-width:0.398;stroke-linecap:butt;stroke-linejoin:miter;stroke-miterlimit:10;stroke-dasharray:none;stroke-opacity:1"
         id="path444"
         inkscape:connector-curvature="0" />
    </g>
    <g
       id="g446"
       transform="matrix(1.25,0,0,-1.25,-1.6903568,396.38639)">
      <path
         d="M 0,0 487.276,0"
         style="fill:none;stroke:#000000;stroke-width:0.398;stroke-linecap:butt;stroke-linejoin:miter;stroke-miterlimit:10;stroke-dasharray:none;stroke-opacity:1"
         id="path448"
         inkscape:connector-curvature="0" />
    </g>
    <g
       id="g450"
       transform="matrix(1.25,0,0,-1.25,-1.4416068,431.50514)">
      <path
         d="M 0,0 0,27.895"
         style="fill:none;stroke:#000000;stroke-width:0.398;stroke-linecap:butt;stroke-linejoin:miter;stroke-miterlimit:10;stroke-dasharray:none;stroke-opacity:1"
         id="path452"
         inkscape:connector-curvature="0" />
    </g>
    <g
       id="g454"
       transform="matrix(1.25,0,0,-1.25,28.652143,431.50514)">
      <path
         d="M 0,0 0,27.895"
         style="fill:none;stroke:#000000;stroke-width:0.398;stroke-linecap:butt;stroke-linejoin:miter;stroke-miterlimit:10;stroke-dasharray:none;stroke-opacity:1"
         id="path456"
         inkscape:connector-curvature="0" />
    </g>
    <text
       y="409.7114"
       x="36.372143"
       style="font-variant:normal;font-weight:normal;font-size:12.45324993px;font-family:CMTI10;-inkscape-font-specification:CMTI10;writing-mode:lr-tb;fill:#000000;fill-opacity:1;fill-rule:nonzero;stroke:none"
       id="text458">
      <tspan
         x="36.372143 45.920048 50.057018 60.56258 69.474129 75.838989 86.662109 97.816483 106.58233 110.40173 119.65823 126.02309"
         y="409.7114"
         sodipodi:role="line"
         id="tspan460">QtyC/oMB.No.</tspan>
      <tspan
         x="36.372143 42.737 49.101856 55.466713 64.378265 71.230042 80.141586 88.588623 97.035667"
         y="424.6564"
         sodipodi:role="line"
         id="tspan462">26/CLTPED</tspan>
    </text>
    <g
       id="g464"
       transform="matrix(1.25,0,0,-1.25,190.60214,431.50514)">
      <path
         d="M 0,0 0,27.895"
         style="fill:none;stroke:#000000;stroke-width:0.398;stroke-linecap:butt;stroke-linejoin:miter;stroke-miterlimit:10;stroke-dasharray:none;stroke-opacity:1"
         id="path466"
         inkscape:connector-curvature="0" />
    </g>
    <text
       y="409.7114"
       x="198.32339"
       style="font-variant:normal;font-weight:normal;font-size:12.45324993px;font-family:CMTI10;-inkscape-font-specification:CMTI10;writing-mode:lr-tb;fill:#000000;fill-opacity:1;fill-rule:nonzero;stroke:none"
       id="text468">
      <tspan
         x="198.32339 206.77043 212.49893 216.31834 225.57484 231.9397"
         y="409.7114"
         sodipodi:role="line"
         id="tspan470">Pg.No.</tspan>
      <tspan
         x="198.32339 204.68825"
         y="424.6564"
         sodipodi:role="line"
         id="tspan472">15</tspan>
    </text>
    <g
       id="g474"
       transform="matrix(1.25,0,0,-1.25,242.67089,431.50514)">
      <path
         d="M 0,0 0,27.895"
         style="fill:none;stroke:#000000;stroke-width:0.398;stroke-linecap:butt;stroke-linejoin:miter;stroke-miterlimit:10;stroke-dasharray:none;stroke-opacity:1"
         id="path476"
         inkscape:connector-curvature="0" />
    </g>
    <text
       y="409.7114"
       x="250.39215"
       style="font-variant:normal;font-weight:normal;font-size:12.45324993px;font-family:CMTI10;-inkscape-font-specification:CMTI10;writing-mode:lr-tb;fill:#000000;fill-opacity:1;fill-rule:nonzero;stroke:none"
       id="text478">
      <tspan
         x="250.39215 258.83917 264.56766 268.38708 277.64359 284.00842"
         y="409.7114"
         sodipodi:role="line"
         id="tspan480">Pg.No.</tspan>
      <tspan
         x="270.13837 276.50323"
         y="424.6564"
         sodipodi:role="line"
         id="tspan482">16</tspan>
    </text>
    <g
       id="g484"
       transform="matrix(1.25,0,0,-1.25,294.74089,431.50514)">
      <path
         d="M 0,0 0,27.895"
         style="fill:none;stroke:#000000;stroke-width:0.398;stroke-linecap:butt;stroke-linejoin:miter;stroke-miterlimit:10;stroke-dasharray:none;stroke-opacity:1"
         id="path486"
         inkscape:connector-curvature="0" />
    </g>
    <g
       id="g488"
       transform="matrix(1.25,0,0,-1.25,346.80964,431.50514)">
      <path
         d="M 0,0 0,27.895"
         style="fill:none;stroke:#000000;stroke-width:0.398;stroke-linecap:butt;stroke-linejoin:miter;stroke-miterlimit:10;stroke-dasharray:none;stroke-opacity:1"
         id="path490"
         inkscape:connector-curvature="0" />
    </g>
    <g
       id="g492"
       transform="matrix(1.25,0,0,-1.25,398.87839,431.50514)">
      <path
         d="M 0,0 0,27.895"
         style="fill:none;stroke:#000000;stroke-width:0.398;stroke-linecap:butt;stroke-linejoin:miter;stroke-miterlimit:10;stroke-dasharray:none;stroke-opacity:1"
         id="path494"
         inkscape:connector-curvature="0" />
    </g>
    <g
       id="g496"
       transform="matrix(1.25,0,0,-1.25,450.94839,431.50514)">
      <path
         d="M 0,0 0,27.895"
         style="fill:none;stroke:#000000;stroke-width:0.398;stroke-linecap:butt;stroke-linejoin:miter;stroke-miterlimit:10;stroke-dasharray:none;stroke-opacity:1"
         id="path498"
         inkscape:connector-curvature="0" />
    </g>
    <g
       id="g500"
       transform="matrix(1.25,0,0,-1.25,503.01714,431.50514)">
      <path
         d="M 0,0 0,27.895"
         style="fill:none;stroke:#000000;stroke-width:0.398;stroke-linecap:butt;stroke-linejoin:miter;stroke-miterlimit:10;stroke-dasharray:none;stroke-opacity:1"
         id="path502"
         inkscape:connector-curvature="0" />
    </g>
    <g
       id="g504"
       transform="matrix(1.25,0,0,-1.25,555.08589,431.50514)">
      <path
         d="M 0,0 0,27.895"
         style="fill:none;stroke:#000000;stroke-width:0.398;stroke-linecap:butt;stroke-linejoin:miter;stroke-miterlimit:10;stroke-dasharray:none;stroke-opacity:1"
         id="path506"
         inkscape:connector-curvature="0" />
    </g>
    <g
       id="g508"
       transform="matrix(1.25,0,0,-1.25,607.15589,431.50514)">
      <path
         d="M 0,0 0,27.895"
         style="fill:none;stroke:#000000;stroke-width:0.398;stroke-linecap:butt;stroke-linejoin:miter;stroke-miterlimit:10;stroke-dasharray:none;stroke-opacity:1"
         id="path510"
         inkscape:connector-curvature="0" />
    </g>
    <g
       id="g512"
       transform="matrix(1.25,0,0,-1.25,-1.6903568,431.75389)">
      <path
         d="M 0,0 487.276,0"
         style="fill:none;stroke:#000000;stroke-width:0.398;stroke-linecap:butt;stroke-linejoin:miter;stroke-miterlimit:10;stroke-dasharray:none;stroke-opacity:1"
         id="path514"
         inkscape:connector-curvature="0" />
    </g>
    <g
       id="g516"
       transform="matrix(1.25,0,0,-1.25,-1.6903568,431.75389)">
      <path
         d="M 0,0 487.276,0"
         style="fill:none;stroke:#000000;stroke-width:0.398;stroke-linecap:butt;stroke-linejoin:miter;stroke-miterlimit:10;stroke-dasharray:none;stroke-opacity:1"
         id="path518"
         inkscape:connector-curvature="0" />
    </g>
  </g>
</svg>
