<?xml version="1.0" encoding="UTF-8" standalone="no"?>
<!-- Created with Inkscape (http://www.inkscape.org/) -->

<svg
   xmlns:dc="http://purl.org/dc/elements/1.1/"
   xmlns:cc="http://creativecommons.org/ns#"
   xmlns:rdf="http://www.w3.org/1999/02/22-rdf-syntax-ns#"
   xmlns:svg="http://www.w3.org/2000/svg"
   xmlns="http://www.w3.org/2000/svg"
   xmlns:sodipodi="http://sodipodi.sourceforge.net/DTD/sodipodi-0.dtd"
   xmlns:inkscape="http://www.inkscape.org/namespaces/inkscape"
   width="181.8998mm"
   height="81.674103mm"
   viewBox="0 0 644.52683 289.39643"
   id="svg4387"
   version="1.1"
   inkscape:version="0.91 r13725"
   sodipodi:docname="measurement_points.svg">
  <defs
     id="defs4389" />
  <sodipodi:namedview
     id="base"
     pagecolor="#ffffff"
     bordercolor="#666666"
     borderopacity="1.0"
     inkscape:pageopacity="0.0"
     inkscape:pageshadow="2"
     inkscape:zoom="0.35"
     inkscape:cx="480.12055"
     inkscape:cy="33.269651"
     inkscape:document-units="px"
     inkscape:current-layer="layer1"
     showgrid="false"
     fit-margin-top="5"
     fit-margin-left="5"
     fit-margin-right="5"
     fit-margin-bottom="5"
     inkscape:window-width="1366"
     inkscape:window-height="703"
     inkscape:window-x="0"
     inkscape:window-y="27"
     inkscape:window-maximized="1" />
  <metadata
     id="metadata4392">
    <rdf:RDF>
      <cc:Work
         rdf:about="">
        <dc:format>image/svg+xml</dc:format>
        <dc:type
           rdf:resource="http://purl.org/dc/dcmitype/StillImage" />
        <dc:title></dc:title>
      </cc:Work>
    </rdf:RDF>
  </metadata>
  <g
     inkscape:label="Layer 1"
     inkscape:groupmode="layer"
     id="layer1"
     transform="translate(105.12055,-276.23543)">
    <text
       y="302.49533"
       x="-87.404015"
       style="font-variant:normal;font-weight:normal;font-size:12.45324993px;font-family:CMBX10;-inkscape-font-specification:CMBX10;writing-mode:lr-tb;fill:#000000;fill-opacity:1;fill-rule:nonzero;stroke:none"
       id="text80">
      <tspan
         x="-87.404015 -81.973152 -76.40406 -69.839951 -53.13641 -41.928482 -34.767868 -30.790295 -23.629681 -19.652111"
         y="302.49533"
         sodipodi:role="line"
         id="tspan82">ItemNo.1.1</tspan>
    </text>
    <text
       y="317.44031"
       x="-87.404015"
       style="font-variant:normal;font-weight:normal;font-size:12.45324993px;font-family:CMR10;-inkscape-font-specification:CMR10;writing-mode:lr-tb;fill:#000000;fill-opacity:1;fill-rule:nonzero;stroke:none"
       id="text84">
      <tspan
         x="-87.404015 -74.604568 -71.145058 -66.267113 -62.807602 -55.888577 -46.013149 -42.207436 -35.980812 -27.454071 -23.99456 -20.535046 -14.308421 -7.7380862 0.75378853 8.0215044 14.248136 17.707638 24.277981 29.121044 38.996471 42.802189 49.028812 59.596622 66.864372 73.090981 76.550499 83.120827 87.96389 97.839333 103.37356 109.94637 116.86539 123.09203 130.01105 134.92261 143.41447 147.2202 153.44681 164.01465 171.26993 177.49652 180.95605 187.53885 192.3819 202.25732 207.79156 214.01819 217.47769 224.586 231.84125 237.37549 240.83499 247.9433 255.21103 261.43765 264.89719 271.46753 279.95938 288.95312 292.41266 297.25571 307.82352 314.05014 317.50964 327.3851 332.29663 338.86948 342.32898 352.7063 366.73236 374.86188 384.02872 391.81198 402.37979 410.8555 419.84674 432.48929 435.94882 442.86783 447.77939 454.69839 458.15793 464.38455 469.22763 474.76187 485.32968 490.86386 497.09055 504.00955 511.27725 516.81152"
         y="317.44031"
         sodipodi:role="line"
         id="tspan86">Wiringforlightpoint/fanpoint/exhaustfanpoint/callbellpointwith1.5sq.mmFRLSPVCinsulatedcopper</tspan>
      <tspan
         x="-87.404015 -81.869797 -75.643166 -68.724144 -61.805119 -54.886093 -49.351868 -44.508797 -38.282177 -30.041859 -25.130295 -21.670788 -14.751758 -8.5251341 -5.0656161 3.8185239 9.3527575 15.579381 20.457325 29.353909 34.888142 41.11478 48.033802 51.493305 60.389912 63.849415 74.130836 79.042381 85.961403 90.839363 94.632622 100.85923 106.40592 115.29006 124.87907 129.757 135.29121 140.82544 146.35968 151.27122 156.18279 161.71701 171.99841 182.37573 187.90994 194.82898 198.28848 205.20749 218.94717 224.48138 227.94092 234.16751 239.0791 247.34058 255.81628 264.81995 277.16364 282.69788 288.9245 295.84351 302.76254 309.68155 313.14105 317.98413 324.96793 333.96164 337.42114 342.26425 352.5332 362.91046 369.48578 376.40485 383.32385 386.78339 393.00998 401.25031 406.1619 415.15561 418.61511 423.45819 428.64371 435.56277 442.53409 452.91141 459.48672 466.40573 473.32474 476.78427 483.01089 491.25119 498.1702 501.62973 507.85635 512.69946 518.2337"
         y="332.38406"
         sodipodi:role="line"
         id="tspan88">conductorsinglecorecableinsurface/recessedmediumclassPVCconduit,withmodularswitch,modularplate,</tspan>
      <tspan
         x="-87.404015 -82.492455 -75.573433 -72.113914 -67.270851 -61.044224 -54.125198 -50.665684 -41.445297 -31.673233 -23.477749 -16.210033 -10.332095 -0.073115759 6.1535153 13.072545 23.690182 29.2244 35.451023 40.328968 45.172031 52.091053 55.550587 62.469608 72.382378 77.225471 84.144493 93.377327 100.63258 106.85921 110.31873 116.88906 125.43075 134.42448 137.88399 142.72705 153.33226 159.55887 163.01839 172.94363 177.85519 184.42801 187.88751 198.2648 208.64209 217.48141 225.6109 234.77777 242.56104 253.1662 261.64188 270.6456 283.3255 286.785 293.70404 298.6156 305.53464 308.99414 315.22076 320.06381 325.59808 336.20325 341.73749 347.96411 354.88312 362.15085 367.68506 376.2616 381.79584 388.02246 394.9415 401.8605 408.77954 414.31378 419.15683 425.38345 433.94754 438.8591 442.31863 449.2377 455.46426 458.9238 468.15665 473.69089 479.91751 484.79544 494.01584 499.55002 505.7767 512.69574 516.15521"
         y="347.32782"
         sodipodi:role="line"
         id="tspan90">suitableGIboxandearthingthepointwith1.5sq.mm.FRLSPVCinsulatedcopperconductorsinglecorecable</tspan>
      <tspan
         x="-87.404015 -81.869797 -77.026726 -67.345566 -61.118942 -52.047997 -47.170059 -41.635834 -35.063011 -28.143982 -24.684467 -19.80653 -14.272311 -7.3532825"
         y="362.27158"
         sodipodi:role="line"
         id="tspan92">etcasrequired.</tspan>
      <tspan
         x="-87.404015 -77.63195 -72.754013 -66.52739 -59.608364 -48.542408"
         y="377.2153"
         sodipodi:role="line"
         id="tspan94">GroupC</tspan>
    </text>
    <text
       y="392.15906"
       x="-87.404015"
       style="font-variant:normal;font-weight:normal;font-size:12.45324993px;font-family:CMTI10;-inkscape-font-specification:CMTI10;writing-mode:lr-tb;fill:#000000;fill-opacity:1;fill-rule:nonzero;stroke:none"
       id="text96">
      <tspan
         x="-87.404015 -82.311882 -73.863602 -68.135101 -57.950836 -51.585979 -46.334442 -40.605949 -35.513817 -31.694405"
         y="392.15906"
         sodipodi:role="line"
         id="tspan98">(Remarks:)</tspan>
    </text>
    <g
       id="g100"
       transform="matrix(1.25,0,0,-1.25,-87.404018,407.35282)">
      <path
         d="M 0,0 487.275,0"
         style="fill:none;stroke:#000000;stroke-width:0.398;stroke-linecap:butt;stroke-linejoin:miter;stroke-miterlimit:10;stroke-dasharray:none;stroke-opacity:1"
         id="path102"
         inkscape:connector-curvature="0" />
    </g>
    <g
       id="g104"
       transform="matrix(1.25,0,0,-1.25,-87.404018,407.35282)">
      <path
         d="M 0,0 487.275,0"
         style="fill:none;stroke:#000000;stroke-width:0.398;stroke-linecap:butt;stroke-linejoin:miter;stroke-miterlimit:10;stroke-dasharray:none;stroke-opacity:1"
         id="path106"
         inkscape:connector-curvature="0" />
    </g>
    <g
       id="g108"
       transform="matrix(1.25,0,0,-1.25,-87.155268,438.66532)">
      <path
         d="M 0,0 0,24.851"
         style="fill:none;stroke:#000000;stroke-width:0.398;stroke-linecap:butt;stroke-linejoin:miter;stroke-miterlimit:10;stroke-dasharray:none;stroke-opacity:1"
         id="path110"
         inkscape:connector-curvature="0" />
    </g>
    <text
       y="419.98532"
       x="-79.434021"
       style="font-variant:normal;font-weight:normal;font-size:12.45324993px;font-family:CMBX10;-inkscape-font-specification:CMBX10;writing-mode:lr-tb;fill:#000000;fill-opacity:1;fill-rule:nonzero;stroke:none"
       id="text112">
      <tspan
         x="-79.434021 -71.477638 -67.500069"
         y="419.98532"
         sodipodi:role="line"
         id="tspan114">Sl.</tspan>
      <tspan
         x="-79.434021 -68.226089 -61.065475"
         y="434.9303"
         sodipodi:role="line"
         id="tspan116">No.</tspan>
    </text>
    <g
       id="g118"
       transform="matrix(1.25,0,0,-1.25,-56.065268,438.66532)">
      <path
         d="M 0,0 0,24.851"
         style="fill:none;stroke:#000000;stroke-width:0.398;stroke-linecap:butt;stroke-linejoin:miter;stroke-miterlimit:10;stroke-dasharray:none;stroke-opacity:1"
         id="path120"
         inkscape:connector-curvature="0" />
    </g>
    <text
       y="419.98532"
       x="-48.345268"
       style="font-variant:normal;font-weight:normal;font-size:12.45324993px;font-family:CMBX10;-inkscape-font-specification:CMBX10;writing-mode:lr-tb;fill:#000000;fill-opacity:1;fill-rule:nonzero;stroke:none"
       id="text122">
      <tspan
         x="-48.345268 -37.362747 -30.798641 -25.149845 -18.784992 -12.887126 -8.909564 -0.95318168 4.6159177 8.5934801 15.754102"
         y="419.98532"
         sodipodi:role="line"
         id="tspan124">Description</tspan>
    </text>
    <g
       id="g126"
       transform="matrix(1.25,0,0,-1.25,115.84723,438.66532)">
      <path
         d="M 0,0 0,24.851"
         style="fill:none;stroke:#000000;stroke-width:0.398;stroke-linecap:butt;stroke-linejoin:miter;stroke-miterlimit:10;stroke-dasharray:none;stroke-opacity:1"
         id="path128"
         inkscape:connector-curvature="0" />
    </g>
    <text
       y="419.98532"
       x="131.98097"
       style="font-variant:normal;font-weight:normal;font-size:12.45324993px;font-family:CMBX10;-inkscape-font-specification:CMBX10;writing-mode:lr-tb;fill:#000000;fill-opacity:1;fill-rule:nonzero;stroke:none"
       id="text130">
      <tspan
         x="131.98097 140.59489 144.57246 151.73308 159.29095 164.86005"
         y="419.98532"
         sodipodi:role="line"
         id="tspan132">Lights</tspan>
    </text>
    <g
       id="g134"
       transform="matrix(1.25,0,0,-1.25,178.23098,438.66532)">
      <path
         d="M 0,0 0,24.851"
         style="fill:none;stroke:#000000;stroke-width:0.398;stroke-linecap:butt;stroke-linejoin:miter;stroke-miterlimit:10;stroke-dasharray:none;stroke-opacity:1"
         id="path136"
         inkscape:connector-curvature="0" />
    </g>
    <text
       y="419.98532"
       x="204.50848"
       style="font-variant:normal;font-weight:normal;font-size:12.45324993px;font-family:CMBX10;-inkscape-font-specification:CMBX10;writing-mode:lr-tb;fill:#000000;fill-opacity:1;fill-rule:nonzero;stroke:none"
       id="text138">
      <tspan
         x="204.50848 212.32413 219.28549 227.24188"
         y="419.98532"
         sodipodi:role="line"
         id="tspan140">Fans</tspan>
    </text>
    <g
       id="g142"
       transform="matrix(1.25,0,0,-1.25,240.61348,438.66532)">
      <path
         d="M 0,0 0,24.851"
         style="fill:none;stroke:#000000;stroke-width:0.398;stroke-linecap:butt;stroke-linejoin:miter;stroke-miterlimit:10;stroke-dasharray:none;stroke-opacity:1"
         id="path144"
         inkscape:connector-curvature="0" />
    </g>
    <text
       y="419.98532"
       x="248.33472"
       style="font-variant:normal;font-weight:normal;font-size:12.45324993px;font-family:CMBX10;-inkscape-font-specification:CMBX10;writing-mode:lr-tb;fill:#000000;fill-opacity:1;fill-rule:nonzero;stroke:none"
       id="text146">
      <tspan
         x="248.33472 257.74442 265.30228 269.27985 277.09552 284.05688 292.01324"
         y="419.98532"
         sodipodi:role="line"
         id="tspan148">Ex.Fans</tspan>
    </text>
    <g
       id="g150"
       transform="matrix(1.25,0,0,-1.25,302.99723,438.66532)">
      <path
         d="M 0,0 0,24.851"
         style="fill:none;stroke:#000000;stroke-width:0.398;stroke-linecap:butt;stroke-linejoin:miter;stroke-miterlimit:10;stroke-dasharray:none;stroke-opacity:1"
         id="path152"
         inkscape:connector-curvature="0" />
    </g>
    <text
       y="419.98532"
       x="332.39847"
       style="font-variant:normal;font-weight:normal;font-size:12.45324993px;font-family:CMBX10;-inkscape-font-specification:CMBX10;writing-mode:lr-tb;fill:#000000;fill-opacity:1;fill-rule:nonzero;stroke:none"
       id="text154">
      <tspan
         x="332.39847 342.74216 349.70352 353.68109"
         y="419.98532"
         sodipodi:role="line"
         id="tspan156">Call</tspan>
      <tspan
         x="327.30347 337.49149 344.0556 348.03317 352.01071"
         y="434.9303"
         sodipodi:role="line"
         id="tspan158">Bells</tspan>
    </text>
    <g
       id="g160"
       transform="matrix(1.25,0,0,-1.25,365.38098,438.66532)">
      <path
         d="M 0,0 0,24.851"
         style="fill:none;stroke:#000000;stroke-width:0.398;stroke-linecap:butt;stroke-linejoin:miter;stroke-miterlimit:10;stroke-dasharray:none;stroke-opacity:1"
         id="path162"
         inkscape:connector-curvature="0" />
    </g>
    <text
       y="419.98532"
       x="383.29724"
       style="font-variant:normal;font-weight:normal;font-size:12.45324993px;font-family:CMBX10;-inkscape-font-specification:CMBX10;writing-mode:lr-tb;fill:#000000;fill-opacity:1;fill-rule:nonzero;stroke:none"
       id="text164">
      <tspan
         x="383.29724 394.0556 399.62469 407.58105 414.14517"
         y="419.98532"
         sodipodi:role="line"
         id="tspan166">Other</tspan>
    </text>
    <g
       id="g168"
       transform="matrix(1.25,0,0,-1.25,427.76348,438.66532)">
      <path
         d="M 0,0 0,24.851"
         style="fill:none;stroke:#000000;stroke-width:0.398;stroke-linecap:butt;stroke-linejoin:miter;stroke-miterlimit:10;stroke-dasharray:none;stroke-opacity:1"
         id="path170"
         inkscape:connector-curvature="0" />
    </g>
    <text
       y="419.98532"
       x="481.28098"
       style="font-variant:normal;font-weight:normal;font-size:12.45324993px;font-family:CMBX10;-inkscape-font-specification:CMBX10;writing-mode:lr-tb;fill:#000000;fill-opacity:1;fill-rule:nonzero;stroke:none"
       id="text172">
      <tspan
         x="481.28098 490.04807 497.20871 502.7778 509.73917"
         y="419.98532"
         sodipodi:role="line"
         id="tspan174">Total</tspan>
    </text>
    <g
       id="g176"
       transform="matrix(1.25,0,0,-1.25,521.44098,438.66532)">
      <path
         d="M 0,0 0,24.851"
         style="fill:none;stroke:#000000;stroke-width:0.398;stroke-linecap:butt;stroke-linejoin:miter;stroke-miterlimit:10;stroke-dasharray:none;stroke-opacity:1"
         id="path178"
         inkscape:connector-curvature="0" />
    </g>
    <g
       id="g180"
       transform="matrix(1.25,0,0,-1.25,-87.404018,438.91532)">
      <path
         d="M 0,0 487.275,0"
         style="fill:none;stroke:#000000;stroke-width:0.398;stroke-linecap:butt;stroke-linejoin:miter;stroke-miterlimit:10;stroke-dasharray:none;stroke-opacity:1"
         id="path182"
         inkscape:connector-curvature="0" />
    </g>
    <g
       id="g184"
       transform="matrix(1.25,0,0,-1.25,-87.404018,438.91532)">
      <path
         d="M 0,0 487.275,0"
         style="fill:none;stroke:#000000;stroke-width:0.398;stroke-linecap:butt;stroke-linejoin:miter;stroke-miterlimit:10;stroke-dasharray:none;stroke-opacity:1"
         id="path186"
         inkscape:connector-curvature="0" />
    </g>
    <g
       id="g188"
       transform="matrix(1.25,0,0,-1.25,-87.155268,457.70532)">
      <path
         d="M 0,0 0,14.833"
         style="fill:none;stroke:#000000;stroke-width:0.398;stroke-linecap:butt;stroke-linejoin:miter;stroke-miterlimit:10;stroke-dasharray:none;stroke-opacity:1"
         id="path190"
         inkscape:connector-curvature="0" />
    </g>
    <text
       y="451.54782"
       x="-74.724014"
       style="font-variant:normal;font-weight:normal;font-size:12.45324993px;font-family:CMR10;-inkscape-font-specification:CMR10;writing-mode:lr-tb;fill:#000000;fill-opacity:1;fill-rule:nonzero;stroke:none"
       id="text192">
      <tspan
         x="-74.724014"
         y="451.54782"
         id="tspan194">1</tspan>
    </text>
    <g
       id="g196"
       transform="matrix(1.25,0,0,-1.25,-56.065268,457.70532)">
      <path
         d="M 0,0 0,14.833"
         style="fill:none;stroke:#000000;stroke-width:0.398;stroke-linecap:butt;stroke-linejoin:miter;stroke-miterlimit:10;stroke-dasharray:none;stroke-opacity:1"
         id="path198"
         inkscape:connector-curvature="0" />
    </g>
    <text
       y="451.54782"
       x="-48.345268"
       style="font-variant:normal;font-weight:normal;font-size:12.45324993px;font-family:CMR10;-inkscape-font-specification:CMR10;writing-mode:lr-tb;fill:#000000;fill-opacity:1;fill-rule:nonzero;stroke:none"
       id="text200">
      <tspan
         x="-48.345268 -40.561989 -37.102474 -30.875851 -24.305515 -15.303058 -8.047801 -1.8211702 1.6383406 8.2086763 13.05174 22.122692 25.582203 32.501232 37.412785 40.872303 47.791325 57.472492 62.384052 67.227119 73.453743 78.331688"
         y="451.54782"
         sodipodi:role="line"
         id="tspan202">Lightpointsinsidestore</tspan>
    </text>
    <g
       id="g204"
       transform="matrix(1.25,0,0,-1.25,115.84723,457.70532)">
      <path
         d="M 0,0 0,14.833"
         style="fill:none;stroke:#000000;stroke-width:0.398;stroke-linecap:butt;stroke-linejoin:miter;stroke-miterlimit:10;stroke-dasharray:none;stroke-opacity:1"
         id="path206"
         inkscape:connector-curvature="0" />
    </g>
    <text
       y="451.54782"
       x="164.28223"
       style="font-variant:normal;font-weight:normal;font-size:12.45324993px;font-family:CMR10;-inkscape-font-specification:CMR10;writing-mode:lr-tb;fill:#000000;fill-opacity:1;fill-rule:nonzero;stroke:none"
       id="text208">
      <tspan
         x="164.28223"
         y="451.54782"
         id="tspan210">2</tspan>
    </text>
    <g
       id="g212"
       transform="matrix(1.25,0,0,-1.25,178.23098,457.70532)">
      <path
         d="M 0,0 0,14.833"
         style="fill:none;stroke:#000000;stroke-width:0.398;stroke-linecap:butt;stroke-linejoin:miter;stroke-miterlimit:10;stroke-dasharray:none;stroke-opacity:1"
         id="path214"
         inkscape:connector-curvature="0" />
    </g>
    <g
       id="g216"
       transform="matrix(1.25,0,0,-1.25,240.61348,457.70532)">
      <path
         d="M 0,0 0,14.833"
         style="fill:none;stroke:#000000;stroke-width:0.398;stroke-linecap:butt;stroke-linejoin:miter;stroke-miterlimit:10;stroke-dasharray:none;stroke-opacity:1"
         id="path218"
         inkscape:connector-curvature="0" />
    </g>
    <g
       id="g220"
       transform="matrix(1.25,0,0,-1.25,302.99723,457.70532)">
      <path
         d="M 0,0 0,14.833"
         style="fill:none;stroke:#000000;stroke-width:0.398;stroke-linecap:butt;stroke-linejoin:miter;stroke-miterlimit:10;stroke-dasharray:none;stroke-opacity:1"
         id="path222"
         inkscape:connector-curvature="0" />
    </g>
    <g
       id="g224"
       transform="matrix(1.25,0,0,-1.25,365.38098,457.70532)">
      <path
         d="M 0,0 0,14.833"
         style="fill:none;stroke:#000000;stroke-width:0.398;stroke-linecap:butt;stroke-linejoin:miter;stroke-miterlimit:10;stroke-dasharray:none;stroke-opacity:1"
         id="path226"
         inkscape:connector-curvature="0" />
    </g>
    <g
       id="g228"
       transform="matrix(1.25,0,0,-1.25,427.76348,457.70532)">
      <path
         d="M 0,0 0,14.833"
         style="fill:none;stroke:#000000;stroke-width:0.398;stroke-linecap:butt;stroke-linejoin:miter;stroke-miterlimit:10;stroke-dasharray:none;stroke-opacity:1"
         id="path230"
         inkscape:connector-curvature="0" />
    </g>
    <text
       y="451.54782"
       x="507.4935"
       style="font-variant:normal;font-weight:normal;font-size:12.45324993px;font-family:CMR10;-inkscape-font-specification:CMR10;writing-mode:lr-tb;fill:#000000;fill-opacity:1;fill-rule:nonzero;stroke:none"
       id="text232">
      <tspan
         x="507.4935"
         y="451.54782"
         id="tspan234">2</tspan>
    </text>
    <g
       id="g236"
       transform="matrix(1.25,0,0,-1.25,521.44098,457.70532)">
      <path
         d="M 0,0 0,14.833"
         style="fill:none;stroke:#000000;stroke-width:0.398;stroke-linecap:butt;stroke-linejoin:miter;stroke-miterlimit:10;stroke-dasharray:none;stroke-opacity:1"
         id="path238"
         inkscape:connector-curvature="0" />
    </g>
    <g
       id="g240"
       transform="matrix(1.25,0,0,-1.25,-87.155268,476.24657)">
      <path
         d="M 0,0 0,14.833"
         style="fill:none;stroke:#000000;stroke-width:0.398;stroke-linecap:butt;stroke-linejoin:miter;stroke-miterlimit:10;stroke-dasharray:none;stroke-opacity:1"
         id="path242"
         inkscape:connector-curvature="0" />
    </g>
    <text
       y="470.08905"
       x="-74.724014"
       style="font-variant:normal;font-weight:normal;font-size:12.45324993px;font-family:CMR10;-inkscape-font-specification:CMR10;writing-mode:lr-tb;fill:#000000;fill-opacity:1;fill-rule:nonzero;stroke:none"
       id="text244">
      <tspan
         x="-74.724014"
         y="470.08905"
         id="tspan246">2</tspan>
    </text>
    <g
       id="g248"
       transform="matrix(1.25,0,0,-1.25,-56.065268,476.24657)">
      <path
         d="M 0,0 0,14.833"
         style="fill:none;stroke:#000000;stroke-width:0.398;stroke-linecap:butt;stroke-linejoin:miter;stroke-miterlimit:10;stroke-dasharray:none;stroke-opacity:1"
         id="path250"
         inkscape:connector-curvature="0" />
    </g>
    <text
       y="470.08905"
       x="-48.345268"
       style="font-variant:normal;font-weight:normal;font-size:12.45324993px;font-family:CMR10;-inkscape-font-specification:CMR10;writing-mode:lr-tb;fill:#000000;fill-opacity:1;fill-rule:nonzero;stroke:none"
       id="text252">
      <tspan
         x="-48.345268 -36.579437 -30.352814 -26.893299 -19.286854 -15.481143 -9.2545118 1.8114363 9.0791597 15.305783 18.765293 25.335629 30.178699 39.249653 42.709156 49.615726 54.539753 57.986805 64.905846 74.599449 79.511009 84.354073 90.580696 95.458641"
         y="470.08905"
         sodipodi:role="line"
         id="tspan254">Wallfanpointsinsidestore</tspan>
    </text>
    <g
       id="g256"
       transform="matrix(1.25,0,0,-1.25,115.84723,476.24657)">
      <path
         d="M 0,0 0,14.833"
         style="fill:none;stroke:#000000;stroke-width:0.398;stroke-linecap:butt;stroke-linejoin:miter;stroke-miterlimit:10;stroke-dasharray:none;stroke-opacity:1"
         id="path258"
         inkscape:connector-curvature="0" />
    </g>
    <g
       id="g260"
       transform="matrix(1.25,0,0,-1.25,178.23098,476.24657)">
      <path
         d="M 0,0 0,14.833"
         style="fill:none;stroke:#000000;stroke-width:0.398;stroke-linecap:butt;stroke-linejoin:miter;stroke-miterlimit:10;stroke-dasharray:none;stroke-opacity:1"
         id="path262"
         inkscape:connector-curvature="0" />
    </g>
    <text
       y="470.08905"
       x="226.66599"
       style="font-variant:normal;font-weight:normal;font-size:12.45324993px;font-family:CMR10;-inkscape-font-specification:CMR10;writing-mode:lr-tb;fill:#000000;fill-opacity:1;fill-rule:nonzero;stroke:none"
       id="text264">
      <tspan
         x="226.66599"
         y="470.08905"
         id="tspan266">2</tspan>
    </text>
    <g
       id="g268"
       transform="matrix(1.25,0,0,-1.25,240.61348,476.24657)">
      <path
         d="M 0,0 0,14.833"
         style="fill:none;stroke:#000000;stroke-width:0.398;stroke-linecap:butt;stroke-linejoin:miter;stroke-miterlimit:10;stroke-dasharray:none;stroke-opacity:1"
         id="path270"
         inkscape:connector-curvature="0" />
    </g>
    <g
       id="g272"
       transform="matrix(1.25,0,0,-1.25,302.99723,476.24657)">
      <path
         d="M 0,0 0,14.833"
         style="fill:none;stroke:#000000;stroke-width:0.398;stroke-linecap:butt;stroke-linejoin:miter;stroke-miterlimit:10;stroke-dasharray:none;stroke-opacity:1"
         id="path274"
         inkscape:connector-curvature="0" />
    </g>
    <g
       id="g276"
       transform="matrix(1.25,0,0,-1.25,365.38098,476.24657)">
      <path
         d="M 0,0 0,14.833"
         style="fill:none;stroke:#000000;stroke-width:0.398;stroke-linecap:butt;stroke-linejoin:miter;stroke-miterlimit:10;stroke-dasharray:none;stroke-opacity:1"
         id="path278"
         inkscape:connector-curvature="0" />
    </g>
    <g
       id="g280"
       transform="matrix(1.25,0,0,-1.25,427.76348,476.24657)">
      <path
         d="M 0,0 0,14.833"
         style="fill:none;stroke:#000000;stroke-width:0.398;stroke-linecap:butt;stroke-linejoin:miter;stroke-miterlimit:10;stroke-dasharray:none;stroke-opacity:1"
         id="path282"
         inkscape:connector-curvature="0" />
    </g>
    <text
       y="470.08905"
       x="507.4935"
       style="font-variant:normal;font-weight:normal;font-size:12.45324993px;font-family:CMR10;-inkscape-font-specification:CMR10;writing-mode:lr-tb;fill:#000000;fill-opacity:1;fill-rule:nonzero;stroke:none"
       id="text284">
      <tspan
         x="507.4935"
         y="470.08905"
         id="tspan286">2</tspan>
    </text>
    <g
       id="g288"
       transform="matrix(1.25,0,0,-1.25,521.44098,476.24657)">
      <path
         d="M 0,0 0,14.833"
         style="fill:none;stroke:#000000;stroke-width:0.398;stroke-linecap:butt;stroke-linejoin:miter;stroke-miterlimit:10;stroke-dasharray:none;stroke-opacity:1"
         id="path290"
         inkscape:connector-curvature="0" />
    </g>
    <g
       id="g292"
       transform="matrix(1.25,0,0,-1.25,-87.155268,494.78907)">
      <path
         d="M 0,0 0,14.833"
         style="fill:none;stroke:#000000;stroke-width:0.398;stroke-linecap:butt;stroke-linejoin:miter;stroke-miterlimit:10;stroke-dasharray:none;stroke-opacity:1"
         id="path294"
         inkscape:connector-curvature="0" />
    </g>
    <text
       y="488.63156"
       x="-74.724014"
       style="font-variant:normal;font-weight:normal;font-size:12.45324993px;font-family:CMR10;-inkscape-font-specification:CMR10;writing-mode:lr-tb;fill:#000000;fill-opacity:1;fill-rule:nonzero;stroke:none"
       id="text296">
      <tspan
         x="-74.724014"
         y="488.63156"
         id="tspan298">3</tspan>
    </text>
    <g
       id="g300"
       transform="matrix(1.25,0,0,-1.25,-56.065268,494.78907)">
      <path
         d="M 0,0 0,14.833"
         style="fill:none;stroke:#000000;stroke-width:0.398;stroke-linecap:butt;stroke-linejoin:miter;stroke-miterlimit:10;stroke-dasharray:none;stroke-opacity:1"
         id="path302"
         inkscape:connector-curvature="0" />
    </g>
    <text
       y="488.63156"
       x="-48.345268"
       style="font-variant:normal;font-weight:normal;font-size:12.45324993px;font-family:CMR10;-inkscape-font-specification:CMR10;writing-mode:lr-tb;fill:#000000;fill-opacity:1;fill-rule:nonzero;stroke:none"
       id="text304">
      <tspan
         x="-48.345268 -39.524632 -33.990406 -30.530895 -22.92445 -15.656734 -9.4301023 -5.970592 0.5997358 9.6021929 13.061704 19.980732 24.892292 28.35181 35.270832 44.952 53.427662 66.050285 70.92823 77.503548 83.730171"
         y="488.63156"
         sodipodi:role="line"
         id="tspan306">BellpointinsideEEroom</tspan>
    </text>
    <g
       id="g308"
       transform="matrix(1.25,0,0,-1.25,115.84723,494.78907)">
      <path
         d="M 0,0 0,14.833"
         style="fill:none;stroke:#000000;stroke-width:0.398;stroke-linecap:butt;stroke-linejoin:miter;stroke-miterlimit:10;stroke-dasharray:none;stroke-opacity:1"
         id="path310"
         inkscape:connector-curvature="0" />
    </g>
    <g
       id="g312"
       transform="matrix(1.25,0,0,-1.25,178.23098,494.78907)">
      <path
         d="M 0,0 0,14.833"
         style="fill:none;stroke:#000000;stroke-width:0.398;stroke-linecap:butt;stroke-linejoin:miter;stroke-miterlimit:10;stroke-dasharray:none;stroke-opacity:1"
         id="path314"
         inkscape:connector-curvature="0" />
    </g>
    <g
       id="g316"
       transform="matrix(1.25,0,0,-1.25,240.61348,494.78907)">
      <path
         d="M 0,0 0,14.833"
         style="fill:none;stroke:#000000;stroke-width:0.398;stroke-linecap:butt;stroke-linejoin:miter;stroke-miterlimit:10;stroke-dasharray:none;stroke-opacity:1"
         id="path318"
         inkscape:connector-curvature="0" />
    </g>
    <g
       id="g320"
       transform="matrix(1.25,0,0,-1.25,302.99723,494.78907)">
      <path
         d="M 0,0 0,14.833"
         style="fill:none;stroke:#000000;stroke-width:0.398;stroke-linecap:butt;stroke-linejoin:miter;stroke-miterlimit:10;stroke-dasharray:none;stroke-opacity:1"
         id="path322"
         inkscape:connector-curvature="0" />
    </g>
    <text
       y="488.63156"
       x="351.43222"
       style="font-variant:normal;font-weight:normal;font-size:12.45324993px;font-family:CMR10;-inkscape-font-specification:CMR10;writing-mode:lr-tb;fill:#000000;fill-opacity:1;fill-rule:nonzero;stroke:none"
       id="text324">
      <tspan
         x="351.43222"
         y="488.63156"
         id="tspan326">1</tspan>
    </text>
    <g
       id="g328"
       transform="matrix(1.25,0,0,-1.25,365.38098,494.78907)">
      <path
         d="M 0,0 0,14.833"
         style="fill:none;stroke:#000000;stroke-width:0.398;stroke-linecap:butt;stroke-linejoin:miter;stroke-miterlimit:10;stroke-dasharray:none;stroke-opacity:1"
         id="path330"
         inkscape:connector-curvature="0" />
    </g>
    <g
       id="g332"
       transform="matrix(1.25,0,0,-1.25,427.76348,494.78907)">
      <path
         d="M 0,0 0,14.833"
         style="fill:none;stroke:#000000;stroke-width:0.398;stroke-linecap:butt;stroke-linejoin:miter;stroke-miterlimit:10;stroke-dasharray:none;stroke-opacity:1"
         id="path334"
         inkscape:connector-curvature="0" />
    </g>
    <text
       y="488.63156"
       x="507.4935"
       style="font-variant:normal;font-weight:normal;font-size:12.45324993px;font-family:CMR10;-inkscape-font-specification:CMR10;writing-mode:lr-tb;fill:#000000;fill-opacity:1;fill-rule:nonzero;stroke:none"
       id="text336">
      <tspan
         x="507.4935"
         y="488.63156"
         id="tspan338">1</tspan>
    </text>
    <g
       id="g340"
       transform="matrix(1.25,0,0,-1.25,521.44098,494.78907)">
      <path
         d="M 0,0 0,14.833"
         style="fill:none;stroke:#000000;stroke-width:0.398;stroke-linecap:butt;stroke-linejoin:miter;stroke-miterlimit:10;stroke-dasharray:none;stroke-opacity:1"
         id="path342"
         inkscape:connector-curvature="0" />
    </g>
    <g
       id="g344"
       transform="matrix(1.25,0,0,-1.25,-87.404018,495.03782)">
      <path
         d="M 0,0 487.275,0"
         style="fill:none;stroke:#000000;stroke-width:0.398;stroke-linecap:butt;stroke-linejoin:miter;stroke-miterlimit:10;stroke-dasharray:none;stroke-opacity:1"
         id="path346"
         inkscape:connector-curvature="0" />
    </g>
    <g
       id="g348"
       transform="matrix(1.25,0,0,-1.25,-87.404018,495.03782)">
      <path
         d="M 0,0 487.275,0"
         style="fill:none;stroke:#000000;stroke-width:0.398;stroke-linecap:butt;stroke-linejoin:miter;stroke-miterlimit:10;stroke-dasharray:none;stroke-opacity:1"
         id="path350"
         inkscape:connector-curvature="0" />
    </g>
    <g
       id="g352"
       transform="matrix(1.25,0,0,-1.25,-87.155268,512.05032)">
      <path
         d="M 0,0 0,13.411"
         style="fill:none;stroke:#000000;stroke-width:0.398;stroke-linecap:butt;stroke-linejoin:miter;stroke-miterlimit:10;stroke-dasharray:none;stroke-opacity:1"
         id="path354"
         inkscape:connector-curvature="0" />
    </g>
    <g
       id="g356"
       transform="matrix(1.25,0,0,-1.25,-56.065268,512.05032)">
      <path
         d="M 0,0 0,13.411"
         style="fill:none;stroke:#000000;stroke-width:0.398;stroke-linecap:butt;stroke-linejoin:miter;stroke-miterlimit:10;stroke-dasharray:none;stroke-opacity:1"
         id="path358"
         inkscape:connector-curvature="0" />
    </g>
    <text
       y="507.56656"
       x="-48.345268"
       style="font-variant:normal;font-weight:normal;font-size:12.45324993px;font-family:CMBX10;-inkscape-font-specification:CMBX10;writing-mode:lr-tb;fill:#000000;fill-opacity:1;fill-rule:nonzero;stroke:none"
       id="text360">
      <tspan
         x="-48.345268 -38.382668 -27.624306 -18.85722 -8.0303602"
         y="507.56656"
         sodipodi:role="line"
         id="tspan362">TOTAL</tspan>
    </text>
    <g
       id="g364"
       transform="matrix(1.25,0,0,-1.25,115.84723,512.05032)">
      <path
         d="M 0,0 0,13.411"
         style="fill:none;stroke:#000000;stroke-width:0.398;stroke-linecap:butt;stroke-linejoin:miter;stroke-miterlimit:10;stroke-dasharray:none;stroke-opacity:1"
         id="path366"
         inkscape:connector-curvature="0" />
    </g>
    <g
       id="g368"
       transform="matrix(1.25,0,0,-1.25,178.23098,512.05032)">
      <path
         d="M 0,0 0,13.411"
         style="fill:none;stroke:#000000;stroke-width:0.398;stroke-linecap:butt;stroke-linejoin:miter;stroke-miterlimit:10;stroke-dasharray:none;stroke-opacity:1"
         id="path370"
         inkscape:connector-curvature="0" />
    </g>
    <g
       id="g372"
       transform="matrix(1.25,0,0,-1.25,240.61348,512.05032)">
      <path
         d="M 0,0 0,13.411"
         style="fill:none;stroke:#000000;stroke-width:0.398;stroke-linecap:butt;stroke-linejoin:miter;stroke-miterlimit:10;stroke-dasharray:none;stroke-opacity:1"
         id="path374"
         inkscape:connector-curvature="0" />
    </g>
    <g
       id="g376"
       transform="matrix(1.25,0,0,-1.25,302.99723,512.05032)">
      <path
         d="M 0,0 0,13.411"
         style="fill:none;stroke:#000000;stroke-width:0.398;stroke-linecap:butt;stroke-linejoin:miter;stroke-miterlimit:10;stroke-dasharray:none;stroke-opacity:1"
         id="path378"
         inkscape:connector-curvature="0" />
    </g>
    <g
       id="g380"
       transform="matrix(1.25,0,0,-1.25,365.38098,512.05032)">
      <path
         d="M 0,0 0,13.411"
         style="fill:none;stroke:#000000;stroke-width:0.398;stroke-linecap:butt;stroke-linejoin:miter;stroke-miterlimit:10;stroke-dasharray:none;stroke-opacity:1"
         id="path382"
         inkscape:connector-curvature="0" />
    </g>
    <g
       id="g384"
       transform="matrix(1.25,0,0,-1.25,427.76348,512.05032)">
      <path
         d="M 0,0 0,13.411"
         style="fill:none;stroke:#000000;stroke-width:0.398;stroke-linecap:butt;stroke-linejoin:miter;stroke-miterlimit:10;stroke-dasharray:none;stroke-opacity:1"
         id="path386"
         inkscape:connector-curvature="0" />
    </g>
    <text
       y="507.56656"
       x="506.55972"
       style="font-variant:normal;font-weight:normal;font-size:12.45324993px;font-family:CMBX10;-inkscape-font-specification:CMBX10;writing-mode:lr-tb;fill:#000000;fill-opacity:1;fill-rule:nonzero;stroke:none"
       id="text388">
      <tspan
         x="506.55972"
         y="507.56656"
         id="tspan390">5</tspan>
    </text>
    <g
       id="g392"
       transform="matrix(1.25,0,0,-1.25,521.44098,512.05032)">
      <path
         d="M 0,0 0,13.411"
         style="fill:none;stroke:#000000;stroke-width:0.398;stroke-linecap:butt;stroke-linejoin:miter;stroke-miterlimit:10;stroke-dasharray:none;stroke-opacity:1"
         id="path394"
         inkscape:connector-curvature="0" />
    </g>
    <g
       id="g396"
       transform="matrix(1.25,0,0,-1.25,-87.404018,512.29907)">
      <path
         d="M 0,0 487.275,0"
         style="fill:none;stroke:#000000;stroke-width:0.398;stroke-linecap:butt;stroke-linejoin:miter;stroke-miterlimit:10;stroke-dasharray:none;stroke-opacity:1"
         id="path398"
         inkscape:connector-curvature="0" />
    </g>
    <g
       id="g400"
       transform="matrix(1.25,0,0,-1.25,-87.404018,512.29907)">
      <path
         d="M 0,0 487.275,0"
         style="fill:none;stroke:#000000;stroke-width:0.398;stroke-linecap:butt;stroke-linejoin:miter;stroke-miterlimit:10;stroke-dasharray:none;stroke-opacity:1"
         id="path402"
         inkscape:connector-curvature="0" />
    </g>
    <g
       id="g404"
       transform="matrix(1.25,0,0,-1.25,-87.155268,547.41782)">
      <path
         d="M 0,0 0,27.895"
         style="fill:none;stroke:#000000;stroke-width:0.398;stroke-linecap:butt;stroke-linejoin:miter;stroke-miterlimit:10;stroke-dasharray:none;stroke-opacity:1"
         id="path406"
         inkscape:connector-curvature="0" />
    </g>
    <g
       id="g408"
       transform="matrix(1.25,0,0,-1.25,-56.065268,547.41782)">
      <path
         d="M 0,0 0,27.895"
         style="fill:none;stroke:#000000;stroke-width:0.398;stroke-linecap:butt;stroke-linejoin:miter;stroke-miterlimit:10;stroke-dasharray:none;stroke-opacity:1"
         id="path410"
         inkscape:connector-curvature="0" />
    </g>
    <text
       y="525.62408"
       x="-48.345268"
       style="font-variant:normal;font-weight:normal;font-size:12.45324993px;font-family:CMTI10;-inkscape-font-specification:CMTI10;writing-mode:lr-tb;fill:#000000;fill-opacity:1;fill-rule:nonzero;stroke:none"
       id="text412">
      <tspan
         x="-48.345268 -38.797363 -34.660393 -24.154831 -15.243281 -8.8784285 1.9446913 13.099065 21.86491 25.684322 34.940823 41.305683"
         y="525.62408"
         sodipodi:role="line"
         id="tspan414">QtyC/oMB.No.</tspan>
      <tspan
         x="-48.345268 -41.980412 -35.615555 -26.70401 -19.85223 -10.940684 -2.4936481 5.9533887"
         y="540.56781"
         sodipodi:role="line"
         id="tspan416">5/CLTPED</tspan>
    </text>
    <g
       id="g418"
       transform="matrix(1.25,0,0,-1.25,115.84723,547.41782)">
      <path
         d="M 0,0 0,27.895"
         style="fill:none;stroke:#000000;stroke-width:0.398;stroke-linecap:butt;stroke-linejoin:miter;stroke-miterlimit:10;stroke-dasharray:none;stroke-opacity:1"
         id="path420"
         inkscape:connector-curvature="0" />
    </g>
    <g
       id="g422"
       transform="matrix(1.25,0,0,-1.25,178.23098,547.41782)">
      <path
         d="M 0,0 0,27.895"
         style="fill:none;stroke:#000000;stroke-width:0.398;stroke-linecap:butt;stroke-linejoin:miter;stroke-miterlimit:10;stroke-dasharray:none;stroke-opacity:1"
         id="path424"
         inkscape:connector-curvature="0" />
    </g>
    <g
       id="g426"
       transform="matrix(1.25,0,0,-1.25,240.61348,547.41782)">
      <path
         d="M 0,0 0,27.895"
         style="fill:none;stroke:#000000;stroke-width:0.398;stroke-linecap:butt;stroke-linejoin:miter;stroke-miterlimit:10;stroke-dasharray:none;stroke-opacity:1"
         id="path428"
         inkscape:connector-curvature="0" />
    </g>
    <g
       id="g430"
       transform="matrix(1.25,0,0,-1.25,302.99723,547.41782)">
      <path
         d="M 0,0 0,27.895"
         style="fill:none;stroke:#000000;stroke-width:0.398;stroke-linecap:butt;stroke-linejoin:miter;stroke-miterlimit:10;stroke-dasharray:none;stroke-opacity:1"
         id="path432"
         inkscape:connector-curvature="0" />
    </g>
    <g
       id="g434"
       transform="matrix(1.25,0,0,-1.25,365.38098,547.41782)">
      <path
         d="M 0,0 0,27.895"
         style="fill:none;stroke:#000000;stroke-width:0.398;stroke-linecap:butt;stroke-linejoin:miter;stroke-miterlimit:10;stroke-dasharray:none;stroke-opacity:1"
         id="path436"
         inkscape:connector-curvature="0" />
    </g>
    <g
       id="g438"
       transform="matrix(1.25,0,0,-1.25,427.76348,547.41782)">
      <path
         d="M 0,0 0,27.895"
         style="fill:none;stroke:#000000;stroke-width:0.398;stroke-linecap:butt;stroke-linejoin:miter;stroke-miterlimit:10;stroke-dasharray:none;stroke-opacity:1"
         id="path440"
         inkscape:connector-curvature="0" />
    </g>
    <text
       y="525.62408"
       x="460.0397"
       style="font-variant:normal;font-weight:normal;font-size:12.45324993px;font-family:CMTI10;-inkscape-font-specification:CMTI10;writing-mode:lr-tb;fill:#000000;fill-opacity:1;fill-rule:nonzero;stroke:none"
       id="text442">
      <tspan
         x="460.0397 468.48679 474.21524 478.0347 487.29117 493.65604 503.20395"
         y="525.62408"
         sodipodi:role="line"
         id="tspan444">Pg.No.1</tspan>
    </text>
    <g
       id="g446"
       transform="matrix(1.25,0,0,-1.25,521.44098,547.41782)">
      <path
         d="M 0,0 0,27.895"
         style="fill:none;stroke:#000000;stroke-width:0.398;stroke-linecap:butt;stroke-linejoin:miter;stroke-miterlimit:10;stroke-dasharray:none;stroke-opacity:1"
         id="path448"
         inkscape:connector-curvature="0" />
    </g>
    <g
       id="g450"
       transform="matrix(1.25,0,0,-1.25,-87.404018,547.66657)">
      <path
         d="M 0,0 487.275,0"
         style="fill:none;stroke:#000000;stroke-width:0.398;stroke-linecap:butt;stroke-linejoin:miter;stroke-miterlimit:10;stroke-dasharray:none;stroke-opacity:1"
         id="path452"
         inkscape:connector-curvature="0" />
    </g>
    <g
       id="g454"
       transform="matrix(1.25,0,0,-1.25,-87.404018,547.66657)">
      <path
         d="M 0,0 487.275,0"
         style="fill:none;stroke:#000000;stroke-width:0.398;stroke-linecap:butt;stroke-linejoin:miter;stroke-miterlimit:10;stroke-dasharray:none;stroke-opacity:1"
         id="path456"
         inkscape:connector-curvature="0" />
    </g>
  </g>
</svg>
